<?xml version="1.0" standalone="no"?><!DOCTYPE svg PUBLIC "-//W3C//DTD SVG 1.1//EN" "http://www.w3.org/Graphics/SVG/1.1/DTD/svg11.dtd"><svg xmlns="http://www.w3.org/2000/svg" version="1.1" width="979" height="1152.086" xmlns:xlink="http://www.w3.org/1999/xlink" xlink="http://www.w3.org/1999/xlink" style="position:relative;overflow:hidden;" viewBox="27.667 12.581 979 1152.086"><defs/><g><g width="273.5" height="194.333" transform="scale(1,1) translate(534.833,125.667)"><g transform="scale(1,1) translate(0,0)" fill="none" stroke="#000000" stroke-opacity="1"><path d="M0,0 L0,149.412 L45.626,194.333 L273.5,194.333 L273.5,0 L0,0 z" stroke-width="8.333" stroke-dasharray="none"/></g></g><g width="877" height="1098.753" transform="scale(1,1) translate(49.333,28.747)"><g transform="scale(1,1) translate(0,0)" fill="none" stroke="#000000" stroke-opacity="1"><path d="M806.736,736.086 L744.569,673.419 L687.333,673.419 L687.333,621.253 L601.167,621.253 L601.167,672.753 L409.667,672.753 L409.667,565.753 L502,565.753 L502,486.368 L454.396,438.442 L523.811,369.641 L549.767,395.753 L877,395.753 L877,97.586 L758.833,97.586 L758.833,291.086 L530.849,291.086 L485.833,247.65 L485.833,128.533 L357.989,0 L262.167,97.042 L262.167,389.753 L318.833,389.753 L318.833,398.086 L0,398.086 L0,823.086 L327.437,823.086 L384.333,880.142 L384.333,1073.086 L703.333,1073.086 L703.333,1098.753 L797.833,1098.753 L797.833,1074.419 L876.333,1074.419 L876.333,736.086 L806.736,736.086 z" stroke-width="8.333" stroke-dasharray="none"/></g></g><g width="262" height="343.167" transform="scale(1,1) translate(49.5,83.5)"><g transform="scale(1,1) translate(0,0)" fill="none" stroke="#000000" stroke-opacity="1"><path d="M0,343.167 L0,39.247 L40.135,0 L183.58,0 L222.413,39.5 L262,39.5 L262,343.167 L0,343.167 z" stroke-width="8.333" stroke-dasharray="none"/></g></g><g width="45" height="13" transform="rotate(135.5,68.667,104) scale(1,1) translate(46.167,97.5)"><g width="45" height="13"><g transform="scale(0.5844154106986076,0.9629635298478926) translate(0,0)"><g><g width="75" height="12.5" transform="scale(1,1) translate(0.5,0.5)"><g stroke-opacity="1" stroke="#000000" opacity="1" stroke-width="1" stroke-dasharray="none" width="75" height="12.5" transform="scale(1,1) translate(0,0)" fill-opacity="1" fill="#FFFFFF"><rect width="75" height="12.5"/></g></g><g width="75" height="0" transform="scale(1,1) translate(0.5,6.667)"><g transform="scale(1,1) translate(0,0)" fill-opacity="1" fill="#000000" stroke-opacity="1" stroke="#000000"><path d="M0,0 L75,0" fill="none" stroke-width="1" stroke-dasharray="none"/><g><g stroke-dasharray="none"><path d="M-1,-1L1,-1L1,1L-1,1z" stroke-width="0" fill="none"/></g></g></g></g></g></g></g></g><g width="45.833" height="13" transform="rotate(45.4,248.917,99.667) scale(1,1) translate(226,93.167)"><g width="45.833" height="13"><g transform="scale(0.5952379183041373,0.9629635298478926) translate(0,0)"><g><g width="75" height="12.5" transform="scale(1,1) translate(0.5,0.5)"><g stroke-opacity="1" stroke="#000000" opacity="1" stroke-width="1" stroke-dasharray="none" width="75" height="12.5" transform="scale(1,1) translate(0,0)" fill-opacity="1" fill="#FFFFFF"><rect width="75" height="12.5"/></g></g><g width="75" height="0" transform="scale(1,1) translate(0.5,6.667)"><g transform="scale(1,1) translate(0,0)" fill-opacity="1" fill="#000000" stroke-opacity="1" stroke="#000000"><path d="M0,0 L75,0" fill="none" stroke-width="1" stroke-dasharray="none"/><g><g stroke-dasharray="none"><path d="M-1,-1L1,-1L1,1L-1,1z" stroke-width="0" fill="none"/></g></g></g></g></g></g></g></g><g width="95.167" height="13" transform="scale(1,1) translate(119.167,77)"><g width="95.167" height="13"><g transform="scale(1.2359303685514997,0.9629635298478926) translate(0,0)"><g><g width="75" height="12.5" transform="scale(1,1) translate(0.5,0.5)"><g stroke-opacity="1" stroke="#000000" opacity="1" stroke-width="1" stroke-dasharray="none" width="75" height="12.5" transform="scale(1,1) translate(0,0)" fill-opacity="1" fill="#FFFFFF"><rect width="75" height="12.5"/></g></g><g width="75" height="0" transform="scale(1,1) translate(0.5,6.667)"><g transform="scale(1,1) translate(0,0)" fill-opacity="1" fill="#000000" stroke-opacity="1" stroke="#000000"><path d="M0,0 L75,0" fill="none" stroke-width="1" stroke-dasharray="none"/><g><g stroke-dasharray="none"><path d="M-1,-1L1,-1L1,1L-1,1z" stroke-width="0" fill="none"/></g></g></g></g></g></g></g></g><g width="133.333" height="71" transform="rotate(90,283.667,263.333) scale(1,1) translate(217,227.833)"><g width="133.333" height="71"><g transform="scale(1.0596053579990368,1.019133733610526) translate(0,0)"><g><g width="122.833" height="14.667" transform="scale(1,1) translate(0.5,0)"><g stroke="#BFBFBF" opacity="1" stroke-width="0" stroke-dasharray="none" width="122.833" height="14.667" transform="scale(1,1) translate(0,0)" fill="#FFFFFF"><rect width="122.833" height="14.667"/></g></g><g width="61.333" height="54.5" transform="scale(1,1) translate(0.5,14.667)"><g transform="scale(1,1) translate(0,0)" fill-opacity="1" fill="#000000" stroke-opacity="1" stroke="#000000"><path d="M0,0 L0,54.5 L0,54.5 L2.111,54.355 L4.167,54.148 L6.172,53.883 L8.128,53.563 L10.038,53.192 L11.905,52.772 L13.731,52.306 L15.517,51.795 L17.265,51.242 L18.977,50.647 L20.653,50.013 L22.295,49.34 L23.904,48.63 L25.48,47.883 L27.025,47.1 L28.539,46.283 L30.022,45.431 L31.475,44.546 L32.899,43.627 L34.294,42.676 L35.659,41.692 L36.996,40.675 L38.305,39.627 L39.585,38.547 L40.836,37.434 L42.06,36.29 L43.255,35.114 L44.421,33.906 L45.559,32.666 L46.668,31.393 L47.747,30.087 L48.798,28.748 L49.818,27.375 L50.807,25.968 L51.766,24.526 L52.693,23.048 L53.588,21.534 L54.449,19.982 L55.276,18.392 L56.068,16.762 L56.823,15.091 L57.54,13.378 L58.218,11.619 L58.854,9.815 L59.447,7.961 L59.995,6.056 L60.494,4.097 L60.941,2.079 L61.333,0 L61.333,0" fill="none" stroke-width="1" stroke-dasharray="none"/><g><g stroke-dasharray="none"><path d="M-1,-1L1,-1L1,1L-1,1z" stroke-width="0" fill="none"/></g></g></g></g><g width="61.333" height="54.5" transform="scale(1,1) translate(62,14.667)"><g transform="scale(1,1) translate(0,0)" fill-opacity="1" fill="#000000" stroke-opacity="1" stroke="#000000"><path d="M61.333,0 L61.333,54.5 L61.333,54.5 L59.223,54.354 L57.168,54.146 L55.164,53.88 L53.209,53.559 L51.299,53.187 L49.433,52.767 L47.608,52.3 L45.822,51.789 L44.075,51.235 L42.363,50.64 L40.687,50.005 L39.046,49.332 L37.437,48.621 L35.861,47.874 L34.316,47.091 L32.803,46.273 L31.32,45.422 L29.867,44.536 L28.443,43.617 L27.049,42.666 L25.683,41.681 L24.346,40.665 L23.038,39.617 L21.758,38.536 L20.506,37.424 L19.283,36.28 L18.088,35.104 L16.921,33.896 L15.783,32.655 L14.674,31.383 L13.595,30.077 L12.544,28.738 L11.524,27.365 L10.534,25.958 L9.575,24.517 L8.648,23.039 L7.753,21.525 L6.891,19.974 L6.064,18.385 L5.272,16.755 L4.516,15.085 L3.798,13.371 L3.12,11.614 L2.483,9.81 L1.889,7.957 L1.341,6.053 L0.842,4.095 L0.393,2.078 L0,0 L0,0" fill="none" stroke-width="1" stroke-dasharray="none"/><g><g stroke-dasharray="none"><path d="M60.333,-1L62.333,-1L62.333,1L60.333,1z" stroke-width="0" fill="none"/></g></g></g></g></g></g></g></g><g width="58" height="58" transform="rotate(90,557,217.833) scale(1,1) translate(528,188.833)"><g width="58" height="58"><g transform="scale(0.9914527759491627,1.0017791589636902) translate(0,0)"><g><g width="56.5" height="43.897" transform="scale(1,1) translate(0.5,0.5)"><g transform="scale(1,1) translate(0,0)" fill-opacity="1" fill="#000000" stroke-opacity="1" stroke="#000000"><path d="M0,43.897 L0,43.897 L0.126,41.664 L0.346,39.557 L0.648,37.558 L1.022,35.654 L1.459,33.835 L1.953,32.092 L2.5,30.418 L3.094,28.809 L3.734,27.259 L4.416,25.765 L5.137,24.324 L5.896,22.932 L6.691,21.588 L7.519,20.29 L8.381,19.035 L9.275,17.823 L10.2,16.652 L11.154,15.521 L12.139,14.43 L13.152,13.377 L14.194,12.361 L15.263,11.383 L16.361,10.442 L17.487,9.538 L18.64,8.671 L19.82,7.84 L21.029,7.046 L22.265,6.29 L23.529,5.57 L24.822,4.889 L26.144,4.246 L27.495,3.642 L28.877,3.078 L30.289,2.556 L31.734,2.076 L33.211,1.639 L34.722,1.249 L36.27,0.905 L37.855,0.612 L39.479,0.371 L41.145,0.186 L42.857,0.061 L44.616,0 L46.428,0.008 L48.297,0.093 L50.23,0.262 L52.234,0.526 L54.32,0.899 L56.5,1.397 L56.5,1.397 L56.5,43.23" fill="none" stroke-width="1" stroke-dasharray="none"/><g><g stroke-dasharray="none"><path d="M-1,42.897L1,42.897L1,44.897L-1,44.897z" stroke-width="0" fill="none"/></g></g></g></g><g width="56.833" height="14.167" transform="scale(1,1) translate(0.167,43.73)"><g stroke="#BFBFBF" opacity="1" stroke-width="0" stroke-dasharray="none" width="56.833" height="14.167" transform="scale(1,1) translate(0,0)" fill="#FFFFFF"><rect width="56.833" height="14.167"/></g></g></g></g></g></g><g width="58" height="58" transform="rotate(270,786.833,218.667) scale(1,1) translate(757.833,189.667)"><g width="58" height="58"><g transform="scale(0.9914533147089102,0.9887488043912852) translate(0,0)"><g><g width="56.5" height="43.993" transform="scale(1,1) translate(0.5,0.5)"><g transform="scale(1,1) translate(0,0)" fill-opacity="1" fill="#000000" stroke-opacity="1" stroke="#000000"><path d="M56.5,43.993 L56.5,43.993 L56.392,41.736 L56.187,39.609 L55.897,37.594 L55.534,35.676 L55.106,33.845 L54.619,32.092 L54.079,30.41 L53.49,28.793 L52.855,27.236 L52.178,25.736 L51.461,24.29 L50.705,22.893 L49.914,21.545 L49.088,20.244 L48.228,18.986 L47.337,17.771 L46.414,16.598 L45.46,15.465 L44.477,14.371 L43.465,13.317 L42.424,12.3 L41.355,11.322 L40.258,10.38 L39.132,9.476 L37.979,8.608 L36.798,7.778 L35.59,6.985 L34.353,6.229 L33.088,5.511 L31.794,4.831 L30.471,4.189 L29.118,3.587 L27.734,3.026 L26.32,2.506 L24.873,2.029 L23.393,1.596 L21.879,1.21 L20.328,0.871 L18.739,0.583 L17.11,0.348 L15.439,0.17 L13.722,0.052 L11.956,0 L10.136,0.019 L8.258,0.115 L6.315,0.298 L4.299,0.578 L2.199,0.97 L0,1.493 L0,1.493 L0,43.326" fill="none" stroke-width="1" stroke-dasharray="none"/><g><g stroke-dasharray="none"><path d="M55.5,42.993L57.5,42.993L57.5,44.993L55.5,44.993z" stroke-width="0" fill="none"/></g></g></g></g><g width="56.833" height="14.167" transform="scale(1,1) translate(0.167,44.493)"><g stroke="#BFBFBF" opacity="1" stroke-width="0" stroke-dasharray="none" width="56.833" height="14.167" transform="scale(1,1) translate(0,0)" fill="#FFFFFF"><rect width="56.833" height="14.167"/></g></g></g></g></g></g><g width="189.5" height="340.333" transform="scale(1,1) translate(736.333,425)"><g transform="scale(1,1) translate(0,0)" fill="none" stroke="#000000" stroke-opacity="1"><path d="M55.438,276.333 L119.271,340.333 L189.5,340.333 L189.5,0 L52.167,0 L52.167,194.5 L0,194.5 L0,276.333 L55.438,276.333 z" stroke-width="8.333" stroke-dasharray="none"/></g></g><g width="94.5" height="13" transform="rotate(90,925.917,597.333) scale(1,1) translate(878.667,590.833)"><g width="94.5" height="13"><g transform="scale(1.227272362467076,0.9629635298478926) translate(0,0)"><g><g width="75" height="12.5" transform="scale(1,1) translate(0.5,0.5)"><g stroke-opacity="1" stroke="#000000" opacity="1" stroke-width="1" stroke-dasharray="none" width="75" height="12.5" transform="scale(1,1) translate(0,0)" fill-opacity="1" fill="#FFFFFF"><rect width="75" height="12.5"/></g></g><g width="75" height="0" transform="scale(1,1) translate(0.5,6.667)"><g transform="scale(1,1) translate(0,0)" fill-opacity="1" fill="#000000" stroke-opacity="1" stroke="#000000"><path d="M0,0 L75,0" fill="none" stroke-width="1" stroke-dasharray="none"/><g><g stroke-dasharray="none"><path d="M-1,-1L1,-1L1,1L-1,1z" stroke-width="0" fill="none"/></g></g></g></g></g></g></g></g><g width="58" height="58" transform="scale(1,1) translate(831.667,417.667)"><g width="58" height="58"><g transform="scale(0.9886307280739549,1.0132597401952612) translate(0,0)"><g><g width="56.667" height="43.908" transform="scale(1,1) translate(0.5,12.833)"><g transform="scale(1,1) translate(0,0)" fill-opacity="1" fill="#000000" stroke-opacity="1" stroke="#000000"><path d="M56.667,0 L56.667,0 L56.536,2.235 L56.311,4.344 L56.004,6.345 L55.627,8.25 L55.186,10.072 L54.687,11.816 L54.137,13.492 L53.538,15.102 L52.894,16.654 L52.209,18.149 L51.484,19.592 L50.721,20.984 L49.923,22.329 L49.09,23.629 L48.225,24.884 L47.328,26.097 L46.4,27.269 L45.441,28.4 L44.453,29.492 L43.437,30.546 L42.391,31.562 L41.318,32.54 L40.217,33.481 L39.088,34.385 L37.932,35.252 L36.748,36.083 L35.536,36.877 L34.296,37.633 L33.028,38.352 L31.732,39.033 L30.407,39.676 L29.053,40.279 L27.668,40.842 L26.252,41.364 L24.805,41.843 L23.324,42.278 L21.81,42.668 L20.259,43.01 L18.671,43.302 L17.044,43.541 L15.374,43.725 L13.66,43.849 L11.898,43.908 L10.083,43.898 L8.212,43.812 L6.276,43.641 L4.27,43.375 L2.182,43 L0,42.5 L0,42.5 L0,0.5" fill="none" stroke-width="1" stroke-dasharray="none"/><g><g stroke-dasharray="none"><path d="M55.667,-1L57.667,-1L57.667,1L55.667,1z" stroke-width="0" fill="none"/></g></g></g></g><g width="57" height="14" transform="scale(1,1) translate(0.667,0)"><g stroke="#BFBFBF" opacity="1" stroke-width="0" stroke-dasharray="none" width="57" height="14" transform="scale(1,1) translate(0,0)" fill="#FFFFFF"><rect width="57" height="14"/></g></g></g></g></g></g><g width="58" height="58" transform="rotate(44.9,849,727.333) scale(1,1) translate(820,698.333)"><g width="58" height="58"><g transform="scale(0.9914527759491627,1.0017791589636902) translate(0,0)"><g><g width="56.5" height="43.897" transform="scale(1,1) translate(0.5,0.5)"><g transform="scale(1,1) translate(0,0)" fill-opacity="1" fill="#000000" stroke-opacity="1" stroke="#000000"><path d="M0,43.897 L0,43.897 L0.126,41.664 L0.346,39.557 L0.648,37.558 L1.022,35.654 L1.459,33.835 L1.953,32.092 L2.5,30.418 L3.094,28.809 L3.734,27.259 L4.416,25.765 L5.137,24.324 L5.896,22.932 L6.691,21.588 L7.519,20.29 L8.381,19.035 L9.275,17.823 L10.2,16.652 L11.154,15.521 L12.139,14.43 L13.152,13.377 L14.194,12.361 L15.263,11.383 L16.361,10.442 L17.487,9.538 L18.64,8.671 L19.82,7.84 L21.029,7.046 L22.265,6.29 L23.529,5.57 L24.822,4.889 L26.144,4.246 L27.495,3.642 L28.877,3.078 L30.289,2.556 L31.734,2.076 L33.211,1.639 L34.722,1.249 L36.27,0.905 L37.855,0.612 L39.479,0.371 L41.145,0.186 L42.857,0.061 L44.616,0 L46.428,0.008 L48.297,0.093 L50.23,0.262 L52.234,0.526 L54.32,0.899 L56.5,1.397 L56.5,1.397 L56.5,43.23" fill="none" stroke-width="1" stroke-dasharray="none"/><g><g stroke-dasharray="none"><path d="M-1,42.897L1,42.897L1,44.897L-1,44.897z" stroke-width="0" fill="none"/></g></g></g></g><g width="56.833" height="14.167" transform="scale(1,1) translate(0.167,43.73)"><g stroke="#BFBFBF" opacity="1" stroke-width="0" stroke-dasharray="none" width="56.833" height="14.167" transform="scale(1,1) translate(0,0)" fill="#FFFFFF"><rect width="56.833" height="14.167"/></g></g></g></g></g></g><g width="64.667" height="13" transform="rotate(90,433.667,1036.5) scale(1,1) translate(401.333,1030)"><g width="64.667" height="13"><g transform="scale(0.8398265901891101,0.9629635298478926) translate(0,0)"><g><g width="75" height="12.5" transform="scale(1,1) translate(0.5,0.5)"><g stroke-opacity="1" stroke="#000000" opacity="1" stroke-width="1" stroke-dasharray="none" width="75" height="12.5" transform="scale(1,1) translate(0,0)" fill-opacity="1" fill="#FFFFFF"><rect width="75" height="12.5"/></g></g><g width="75" height="0" transform="scale(1,1) translate(0.5,6.667)"><g transform="scale(1,1) translate(0,0)" fill-opacity="1" fill="#000000" stroke-opacity="1" stroke="#000000"><path d="M0,0 L75,0" fill="none" stroke-width="1" stroke-dasharray="none"/><g><g stroke-dasharray="none"><path d="M-1,-1L1,-1L1,1L-1,1z" stroke-width="0" fill="none"/></g></g></g></g></g></g></g></g><g width="58" height="58" transform="rotate(270,411.5,965.667) scale(1,1) translate(382.5,936.667)"><g width="58" height="58"><g transform="scale(0.9914527759491627,1.0017791589636902) translate(0,0)"><g><g width="56.5" height="43.897" transform="scale(1,1) translate(0.5,0.5)"><g transform="scale(1,1) translate(0,0)" fill-opacity="1" fill="#000000" stroke-opacity="1" stroke="#000000"><path d="M0,43.897 L0,43.897 L0.126,41.664 L0.346,39.557 L0.648,37.558 L1.022,35.654 L1.459,33.835 L1.953,32.092 L2.5,30.418 L3.094,28.809 L3.734,27.259 L4.416,25.765 L5.137,24.324 L5.896,22.932 L6.691,21.588 L7.519,20.29 L8.381,19.035 L9.275,17.823 L10.2,16.652 L11.154,15.521 L12.139,14.43 L13.152,13.377 L14.194,12.361 L15.263,11.383 L16.361,10.442 L17.487,9.538 L18.64,8.671 L19.82,7.84 L21.029,7.046 L22.265,6.29 L23.529,5.57 L24.822,4.889 L26.144,4.246 L27.495,3.642 L28.877,3.078 L30.289,2.556 L31.734,2.076 L33.211,1.639 L34.722,1.249 L36.27,0.905 L37.855,0.612 L39.479,0.371 L41.145,0.186 L42.857,0.061 L44.616,0 L46.428,0.008 L48.297,0.093 L50.23,0.262 L52.234,0.526 L54.32,0.899 L56.5,1.397 L56.5,1.397 L56.5,43.23" fill="none" stroke-width="1" stroke-dasharray="none"/><g><g stroke-dasharray="none"><path d="M-1,42.897L1,42.897L1,44.897L-1,44.897z" stroke-width="0" fill="none"/></g></g></g></g><g width="56.833" height="14.167" transform="scale(1,1) translate(0.167,43.73)"><g stroke="#BFBFBF" opacity="1" stroke-width="0" stroke-dasharray="none" width="56.833" height="14.167" transform="scale(1,1) translate(0,0)" fill="#FFFFFF"><rect width="56.833" height="14.167"/></g></g></g></g></g></g><g width="145.833" height="13" transform="scale(1,1) translate(98.167,845.333)"><g width="145.833" height="13"><g transform="scale(1.8939388309677097,0.9629635298478926) translate(0,0)"><g><g width="75" height="12.5" transform="scale(1,1) translate(0.5,0.5)"><g stroke-opacity="1" stroke="#000000" opacity="1" stroke-width="1" stroke-dasharray="none" width="75" height="12.5" transform="scale(1,1) translate(0,0)" fill-opacity="1" fill="#FFFFFF"><rect width="75" height="12.5"/></g></g><g width="75" height="0" transform="scale(1,1) translate(0.5,6.667)"><g transform="scale(1,1) translate(0,0)" fill-opacity="1" fill="#000000" stroke-opacity="1" stroke="#000000"><path d="M0,0 L75,0" fill="none" stroke-width="1" stroke-dasharray="none"/><g><g stroke-dasharray="none"><path d="M-1,-1L1,-1L1,1L-1,1z" stroke-width="0" fill="none"/></g></g></g></g></g></g></g></g><g width="28.333" height="75" transform="rotate(180,357.167,810.667) scale(1,1) translate(343,773.167)"><g stroke="#000000" stroke-opacity="1" stroke-width="1" stroke-dasharray="none" width="28.333" height="75" transform="scale(1,1) translate(0,0)" fill="#000000" fill-opacity="1"><rect width="28.333" height="75"/></g></g><g width="28.333" height="75" transform="rotate(180,357.667,468) scale(1,1) translate(343.5,430.5)"><g stroke="#000000" stroke-opacity="1" stroke-width="1" stroke-dasharray="none" width="28.333" height="75" transform="scale(1,1) translate(0,0)" fill="#000000" fill-opacity="1"><rect width="28.333" height="75"/></g></g><g width="29.167" height="13" transform="rotate(134.6,333.083,103.833) scale(1,1) translate(318.5,97.333)"><g width="29.167" height="13"><g transform="scale(0.37878776619354193,0.9629635298478926) translate(0,0)"><g><g width="75" height="12.5" transform="scale(1,1) translate(0.5,0.5)"><g stroke-opacity="1" stroke="#000000" opacity="1" stroke-width="1" stroke-dasharray="none" width="75" height="12.5" transform="scale(1,1) translate(0,0)" fill-opacity="1" fill="#FFFFFF"><rect width="75" height="12.5"/></g></g><g width="75" height="0" transform="scale(1,1) translate(0.5,6.667)"><g transform="scale(1,1) translate(0,0)" fill-opacity="1" fill="#000000" stroke-opacity="1" stroke="#000000"><path d="M0,0 L75,0" fill="none" stroke-width="1" stroke-dasharray="none"/><g><g stroke-dasharray="none"><path d="M-1,-1L1,-1L1,1L-1,1z" stroke-width="0" fill="none"/></g></g></g></g></g></g></g></g><g width="58" height="58" transform="rotate(134.6,388.167,78.833) scale(1,1) translate(359.167,49.833)"><g width="58" height="58"><g transform="scale(0.9914533147089102,0.9887488043912852) translate(0,0)"><g><g width="56.5" height="43.993" transform="scale(1,1) translate(0.5,0.5)"><g transform="scale(1,1) translate(0,0)" fill-opacity="1" fill="#000000" stroke-opacity="1" stroke="#000000"><path d="M56.5,43.993 L56.5,43.993 L56.392,41.736 L56.187,39.609 L55.897,37.594 L55.534,35.676 L55.106,33.845 L54.619,32.092 L54.079,30.41 L53.49,28.793 L52.855,27.236 L52.178,25.736 L51.461,24.29 L50.705,22.893 L49.914,21.545 L49.088,20.244 L48.228,18.986 L47.337,17.771 L46.414,16.598 L45.46,15.465 L44.477,14.371 L43.465,13.317 L42.424,12.3 L41.355,11.322 L40.258,10.38 L39.132,9.476 L37.979,8.608 L36.798,7.778 L35.59,6.985 L34.353,6.229 L33.088,5.511 L31.794,4.831 L30.471,4.189 L29.118,3.587 L27.734,3.026 L26.32,2.506 L24.873,2.029 L23.393,1.596 L21.879,1.21 L20.328,0.871 L18.739,0.583 L17.11,0.348 L15.439,0.17 L13.722,0.052 L11.956,0 L10.136,0.019 L8.258,0.115 L6.315,0.298 L4.299,0.578 L2.199,0.97 L0,1.493 L0,1.493 L0,43.326" fill="none" stroke-width="1" stroke-dasharray="none"/><g><g stroke-dasharray="none"><path d="M55.5,42.993L57.5,42.993L57.5,44.993L55.5,44.993z" stroke-width="0" fill="none"/></g></g></g></g><g width="56.833" height="14.167" transform="scale(1,1) translate(0.167,44.493)"><g stroke="#BFBFBF" opacity="1" stroke-width="0" stroke-dasharray="none" width="56.833" height="14.167" transform="scale(1,1) translate(0,0)" fill="#FFFFFF"><rect width="56.833" height="14.167"/></g></g></g></g></g></g><g width="58" height="58" transform="scale(1,1) translate(847.833,75.167)"><g width="58" height="58"><g transform="scale(0.9914527759491627,1.0017791589636902) translate(0,0)"><g><g width="56.5" height="43.897" transform="scale(1,1) translate(0.5,0.5)"><g transform="scale(1,1) translate(0,0)" fill-opacity="1" fill="#000000" stroke-opacity="1" stroke="#000000"><path d="M0,43.897 L0,43.897 L0.126,41.664 L0.346,39.557 L0.648,37.558 L1.022,35.654 L1.459,33.835 L1.953,32.092 L2.5,30.418 L3.094,28.809 L3.734,27.259 L4.416,25.765 L5.137,24.324 L5.896,22.932 L6.691,21.588 L7.519,20.29 L8.381,19.035 L9.275,17.823 L10.2,16.652 L11.154,15.521 L12.139,14.43 L13.152,13.377 L14.194,12.361 L15.263,11.383 L16.361,10.442 L17.487,9.538 L18.64,8.671 L19.82,7.84 L21.029,7.046 L22.265,6.29 L23.529,5.57 L24.822,4.889 L26.144,4.246 L27.495,3.642 L28.877,3.078 L30.289,2.556 L31.734,2.076 L33.211,1.639 L34.722,1.249 L36.27,0.905 L37.855,0.612 L39.479,0.371 L41.145,0.186 L42.857,0.061 L44.616,0 L46.428,0.008 L48.297,0.093 L50.23,0.262 L52.234,0.526 L54.32,0.899 L56.5,1.397 L56.5,1.397 L56.5,43.23" fill="none" stroke-width="1" stroke-dasharray="none"/><g><g stroke-dasharray="none"><path d="M-1,42.897L1,42.897L1,44.897L-1,44.897z" stroke-width="0" fill="none"/></g></g></g></g><g width="56.833" height="14.167" transform="scale(1,1) translate(0.167,43.73)"><g stroke="#BFBFBF" opacity="1" stroke-width="0" stroke-dasharray="none" width="56.833" height="14.167" transform="scale(1,1) translate(0,0)" fill="#FFFFFF"><rect width="56.833" height="14.167"/></g></g></g></g></g></g><g width="93.833" height="13" transform="rotate(90,926.25,284.333) scale(1,1) translate(879.333,277.833)"><g width="93.833" height="13"><g transform="scale(1.2186143563826521,0.9629635298478926) translate(0,0)"><g><g width="75" height="12.5" transform="scale(1,1) translate(0.5,0.5)"><g stroke-opacity="1" stroke="#000000" opacity="1" stroke-width="1" stroke-dasharray="none" width="75" height="12.5" transform="scale(1,1) translate(0,0)" fill-opacity="1" fill="#FFFFFF"><rect width="75" height="12.5"/></g></g><g width="75" height="0" transform="scale(1,1) translate(0.5,6.667)"><g transform="scale(1,1) translate(0,0)" fill-opacity="1" fill="#000000" stroke-opacity="1" stroke="#000000"><path d="M0,0 L75,0" fill="none" stroke-width="1" stroke-dasharray="none"/><g><g stroke-dasharray="none"><path d="M-1,-1L1,-1L1,1L-1,1z" stroke-width="0" fill="none"/></g></g></g></g></g></g></g></g><g width="264.583" height="33.333" transform="scale(1,1) translate(539.667,129.167)"><g stroke="#000000" stroke-opacity="1" stroke-width="0.3333333333333333" stroke-dasharray="none" width="264.583" height="33.333" transform="scale(1,1) translate(0,0)" fill="#D8D8D8" fill-opacity="1"><rect width="264.583" height="33.333"/></g><g fill="#9999FF" stroke="#9999FF" stroke-opacity="1" opacity="0" transform="scale(1,1) translate(0,0)"><path fill="none" stroke-width="1" stroke-dasharray="none" d="M0,0"/></g><g width="24.91861915588379" height="11.458333015441895" transform="scale(1,1) translate(119.832,-16.792)" opacity="0"><text width="24.91861915588379" height="11.458333015441895" transform="scale(1,1) translate(0,0)" xml:space="preserve"><tspan xml:space="preserve" text-rendering="optimizeSpeed" font-size="10" font-weight="normal" font-style="normal" text-decoration="none" fill="#000" opacity="1" x="0" text-anchor="start" y="9.375" textLength="24.91861915588379" style="font-family: Arial, Helvetica Neue, Helvetica, sans-serif;">10' 7"</tspan></text></g><g transform="scale(1,1) translate(0,0)" fill="black" opacity="0"><path d="M116.968,-13.927 L116.968,-8.198 L111.239,-11.062 L116.968,-13.927 z"/></g><g transform="scale(1,1) translate(0,0)" fill="black" opacity="0"><path d="M147.616,-13.927 L147.616,-8.198 L153.345,-11.062 L147.616,-13.927 z"/></g><g width="19.35221290588379" height="11.458333015441895" transform="rotate(270,269.917,26.343) scale(1,1) translate(269.917,26.343)" opacity="0"><text width="19.35221290588379" height="11.458333015441895" transform="scale(1,1) translate(0,0)" xml:space="preserve"><tspan xml:space="preserve" text-rendering="optimizeSpeed" font-size="10" font-weight="normal" font-style="normal" text-decoration="none" fill="#000" opacity="1" x="0" text-anchor="start" y="9.375" textLength="19.35221290588379" style="font-family: Arial, Helvetica Neue, Helvetica, sans-serif;">1' 4"</tspan></text></g><g transform="scale(1,1) translate(0,0)" fill="black" opacity="0"><path d="M278.51,4.126 L272.781,4.126 L275.646,-1.603 L278.51,4.126 z"/></g><g transform="scale(1,1) translate(0,0)" fill="black" opacity="0"><path d="M278.51,29.207 L272.781,29.207 L275.646,34.937 L278.51,29.207 z"/></g></g><g width="200" height="33.333" transform="scale(1,1) translate(603.5,282)"><g stroke="#000000" stroke-opacity="1" stroke-width="0.3333333333333333" stroke-dasharray="none" width="200" height="33.333" transform="scale(1,1) translate(0,0)" fill="#D8D8D8" fill-opacity="1"><rect width="200" height="33.333"/></g><g fill="#9999FF" stroke="#9999FF" stroke-opacity="1" opacity="0" transform="scale(1,1) translate(0,0)"><path fill="none" stroke-width="1" stroke-dasharray="none" d="M0,0"/></g><g width="19.35221290588379" height="11.458333015441895" transform="scale(1,1) translate(90.324,-16.792)" opacity="0"><text width="19.35221290588379" height="11.458333015441895" transform="scale(1,1) translate(0,0)" xml:space="preserve"><tspan xml:space="preserve" text-rendering="optimizeSpeed" font-size="10" font-weight="normal" font-style="normal" text-decoration="none" fill="#000" opacity="1" x="0" text-anchor="start" y="9.375" textLength="19.35221290588379" style="font-family: Arial, Helvetica Neue, Helvetica, sans-serif;">8' 0"</tspan></text></g><g transform="scale(1,1) translate(0,0)" fill="black" opacity="0"><path d="M87.459,-13.927 L87.459,-8.198 L81.73,-11.062 L87.459,-13.927 z"/></g><g transform="scale(1,1) translate(0,0)" fill="black" opacity="0"><path d="M112.541,-13.927 L112.541,-8.198 L118.27,-11.062 L112.541,-13.927 z"/></g><g width="19.35221290588379" height="11.458333015441895" transform="rotate(270,205.333,26.343) scale(1,1) translate(205.333,26.343)" opacity="0"><text width="19.35221290588379" height="11.458333015441895" transform="scale(1,1) translate(0,0)" xml:space="preserve"><tspan xml:space="preserve" text-rendering="optimizeSpeed" font-size="10" font-weight="normal" font-style="normal" text-decoration="none" fill="#000" opacity="1" x="0" text-anchor="start" y="9.375" textLength="19.35221290588379" style="font-family: Arial, Helvetica Neue, Helvetica, sans-serif;">1' 4"</tspan></text></g><g transform="scale(1,1) translate(0,0)" fill="black" opacity="0"><path d="M213.927,4.126 L208.198,4.126 L211.062,-1.603 L213.927,4.126 z"/></g><g transform="scale(1,1) translate(0,0)" fill="black" opacity="0"><path d="M213.927,29.207 L208.198,29.207 L211.062,34.937 L213.927,29.207 z"/></g></g><g width="25" height="175" transform="scale(1,1) translate(792.167,429.333)"><g stroke="#000000" stroke-opacity="1" stroke-width="0.3333333333333333" stroke-dasharray="none" width="25" height="175" transform="scale(1,1) translate(0,0)" fill="#D8D8D8" fill-opacity="1"><rect width="25" height="175"/></g><g fill="#9999FF" stroke="#9999FF" stroke-opacity="1" opacity="0" transform="scale(1,1) translate(0,0)"><path fill="none" stroke-width="1" stroke-dasharray="none" d="M0,0"/></g><g width="19.35221290588379" height="11.458333015441895" transform="scale(1,1) translate(2.824,-16.792)" opacity="0"><text width="19.35221290588379" height="11.458333015441895" transform="scale(1,1) translate(0,0)" xml:space="preserve"><tspan xml:space="preserve" text-rendering="optimizeSpeed" font-size="10" font-weight="normal" font-style="normal" text-decoration="none" fill="#000" opacity="1" x="0" text-anchor="start" y="9.375" textLength="19.35221290588379" style="font-family: Arial, Helvetica Neue, Helvetica, sans-serif;">1' 0"</tspan></text></g><g transform="scale(1,1) translate(0,0)" fill="black" opacity="0"><path d="M-0.041,-13.927 L-0.041,-8.198 L-5.77,-11.062 L-0.041,-13.927 z"/></g><g transform="scale(1,1) translate(0,0)" fill="black" opacity="0"><path d="M25.041,-13.927 L25.041,-8.198 L30.77,-11.062 L25.041,-13.927 z"/></g><g width="19.35221290588379" height="11.458333015441895" transform="rotate(270,30.333,97.176) scale(1,1) translate(30.333,97.176)" opacity="0"><text width="19.35221290588379" height="11.458333015441895" transform="scale(1,1) translate(0,0)" xml:space="preserve"><tspan xml:space="preserve" text-rendering="optimizeSpeed" font-size="10" font-weight="normal" font-style="normal" text-decoration="none" fill="#000" opacity="1" x="0" text-anchor="start" y="9.375" textLength="19.35221290588379" style="font-family: Arial, Helvetica Neue, Helvetica, sans-serif;">7' 0"</tspan></text></g><g transform="scale(1,1) translate(0,0)" fill="black" opacity="0"><path d="M38.927,74.959 L33.198,74.959 L36.062,69.23 L38.927,74.959 z"/></g><g transform="scale(1,1) translate(0,0)" fill="black" opacity="0"><path d="M38.927,100.041 L33.198,100.041 L36.062,105.77 L38.927,100.041 z"/></g></g><g width="25" height="331.167" transform="scale(1,1) translate(896.167,429.167)"><g stroke="#000000" stroke-opacity="1" stroke-width="0.3333333333333333" stroke-dasharray="none" width="25" height="331.167" transform="scale(1,1) translate(0,0)" fill="#D8D8D8" fill-opacity="1"><rect width="25" height="331.167"/></g><g fill="#9999FF" stroke="#9999FF" stroke-opacity="1" opacity="0" transform="scale(1,1) translate(0,0)"><path fill="none" stroke-width="1" stroke-dasharray="none" d="M0,0"/></g><g width="19.35221290588379" height="11.458333015441895" transform="scale(1,1) translate(2.824,-16.792)" opacity="0"><text width="19.35221290588379" height="11.458333015441895" transform="scale(1,1) translate(0,0)" xml:space="preserve"><tspan xml:space="preserve" text-rendering="optimizeSpeed" font-size="10" font-weight="normal" font-style="normal" text-decoration="none" fill="#000" opacity="1" x="0" text-anchor="start" y="9.375" textLength="19.35221290588379" style="font-family: Arial, Helvetica Neue, Helvetica, sans-serif;">1' 0"</tspan></text></g><g transform="scale(1,1) translate(0,0)" fill="black" opacity="0"><path d="M-0.041,-13.927 L-0.041,-8.198 L-5.77,-11.062 L-0.041,-13.927 z"/></g><g transform="scale(1,1) translate(0,0)" fill="black" opacity="0"><path d="M25.041,-13.927 L25.041,-8.198 L30.77,-11.062 L25.041,-13.927 z"/></g><g width="24.91861915588379" height="11.458333015441895" transform="rotate(270,30.333,178.043) scale(1,1) translate(30.333,178.043)" opacity="0"><text width="24.91861915588379" height="11.458333015441895" transform="scale(1,1) translate(0,0)" xml:space="preserve"><tspan xml:space="preserve" text-rendering="optimizeSpeed" font-size="10" font-weight="normal" font-style="normal" text-decoration="none" fill="#000" opacity="1" x="0" text-anchor="start" y="9.375" textLength="24.91861915588379" style="font-family: Arial, Helvetica Neue, Helvetica, sans-serif;">13' 3"</tspan></text></g><g transform="scale(1,1) translate(0,0)" fill="black" opacity="0"><path d="M38.927,150.259 L33.198,150.259 L36.062,144.53 L38.927,150.259 z"/></g><g transform="scale(1,1) translate(0,0)" fill="black" opacity="0"><path d="M38.927,180.907 L33.198,180.907 L36.062,186.636 L38.927,180.907 z"/></g></g><g width="236.5" height="133.833" transform="scale(1,1) translate(685,965)"><g transform="scale(1,1) translate(0,0)" stroke="#000000" fill="#BFBFBF" fill-opacity="1" stroke-opacity="1"><path d="M0,133.833 L236.5,133.833 L236.5,0 L181.461,0 L181.461,65.833 L156.61,80.333 L0,80.333 L0,133.833 z" stroke-width="0.333" stroke-dasharray="none"/></g><g fill="#9999FF" stroke="#9999FF" stroke-opacity="1" opacity="0" transform="scale(1,1) translate(0,0)"><path fill="none" stroke-width="1" stroke-dasharray="none" d="M0,0"/></g><g width="19.35221290588379" height="11.458333015441895" transform="scale(1,1) translate(108.574,139.167)" opacity="0"><text width="19.35221290588379" height="11.458333015441895" transform="scale(1,1) translate(0,0)" xml:space="preserve"><tspan xml:space="preserve" text-rendering="optimizeSpeed" font-size="10" font-weight="normal" font-style="normal" text-decoration="none" fill="#000" opacity="1" x="0" text-anchor="start" y="9.375" textLength="19.35221290588379" style="font-family: Arial, Helvetica Neue, Helvetica, sans-serif;">9' 6"</tspan></text></g><g transform="scale(1,1) translate(0,0)" fill="black" opacity="0"><path d="M105.709,142.031 L105.709,147.76 L99.98,144.896 L105.709,142.031 z"/></g><g transform="scale(1,1) translate(0,0)" fill="black" opacity="0"><path d="M130.791,142.031 L130.791,147.76 L136.52,144.896 L130.791,142.031 z"/></g><g width="19.35221290588379" height="11.458333015441895" transform="rotate(270,241.833,76.593) scale(1,1) translate(241.833,76.593)" opacity="0"><text width="19.35221290588379" height="11.458333015441895" transform="scale(1,1) translate(0,0)" xml:space="preserve"><tspan xml:space="preserve" text-rendering="optimizeSpeed" font-size="10" font-weight="normal" font-style="normal" text-decoration="none" fill="#000" opacity="1" x="0" text-anchor="start" y="9.375" textLength="19.35221290588379" style="font-family: Arial, Helvetica Neue, Helvetica, sans-serif;">5' 4"</tspan></text></g><g transform="scale(1,1) translate(0,0)" fill="black" opacity="0"><path d="M244.698,79.457 L250.427,79.457 L247.562,85.187 L244.698,79.457 z"/></g><g transform="scale(1,1) translate(0,0)" fill="black" opacity="0"><path d="M244.698,54.376 L250.427,54.376 L247.562,48.647 L244.698,54.376 z"/></g><g width="19.35221290588379" height="11.458333015441895" transform="rotate(360,199.305,-16.792) scale(1,1) translate(199.305,-16.792)" opacity="0"><text width="19.35221290588379" height="11.458333015441895" transform="scale(1,1) translate(0,0)" xml:space="preserve"><tspan xml:space="preserve" text-rendering="optimizeSpeed" font-size="10" font-weight="normal" font-style="normal" text-decoration="none" fill="#000" opacity="1" x="0" text-anchor="start" y="9.375" textLength="19.35221290588379" style="font-family: Arial, Helvetica Neue, Helvetica, sans-serif;">2' 2"</tspan></text></g><g transform="scale(1,1) translate(0,0)" fill="black" opacity="0"><path d="M221.521,-8.198 L221.521,-13.927 L227.25,-11.062 L221.521,-8.198 z"/></g><g transform="scale(1,1) translate(0,0)" fill="black" opacity="0"><path d="M196.44,-8.198 L196.44,-13.927 L190.711,-11.062 L196.44,-8.198 z"/></g><g width="19.35221290588379" height="11.458333015441895" transform="rotate(270,164.67,42.593) scale(1,1) translate(164.67,42.593)" opacity="0"><text width="19.35221290588379" height="11.458333015441895" transform="scale(1,1) translate(0,0)" xml:space="preserve"><tspan xml:space="preserve" text-rendering="optimizeSpeed" font-size="10" font-weight="normal" font-style="normal" text-decoration="none" fill="#000" opacity="1" x="0" text-anchor="start" y="9.375" textLength="19.35221290588379" style="font-family: Arial, Helvetica Neue, Helvetica, sans-serif;">2' 8"</tspan></text></g><g transform="scale(1,1) translate(0,0)" fill="black" opacity="0"><path d="M173.263,20.376 L167.534,20.376 L170.399,14.647 L173.263,20.376 z"/></g><g transform="scale(1,1) translate(0,0)" fill="black" opacity="0"><path d="M173.263,45.457 L167.534,45.457 L170.399,51.187 L173.263,45.457 z"/></g><g width="19.35221290588379" height="11.458333015441895" transform="rotate(329.737,152.216,63.456) scale(1,1) translate(152.216,63.456)" opacity="0"><text width="19.35221290588379" height="11.458333015441895" transform="scale(1,1) translate(0,0)" xml:space="preserve"><tspan xml:space="preserve" text-rendering="optimizeSpeed" font-size="10" font-weight="normal" font-style="normal" text-decoration="none" fill="#000" opacity="1" x="0" text-anchor="start" y="9.375" textLength="19.35221290588379" style="font-family: Arial, Helvetica Neue, Helvetica, sans-serif;">1' 2"</tspan></text></g><g transform="scale(1,1) translate(0,0)" fill="black" opacity="0"><path d="M175.736,59.683 L172.849,54.734 L179.241,54.321 L175.736,59.683 z"/></g><g transform="scale(1,1) translate(0,0)" fill="black" opacity="0"><path d="M154.073,72.323 L151.185,67.374 L147.681,72.736 L154.073,72.323 z"/></g><g width="19.35221290588379" height="11.458333015441895" transform="rotate(360,68.629,63.542) scale(1,1) translate(68.629,63.542)" opacity="0"><text width="19.35221290588379" height="11.458333015441895" transform="scale(1,1) translate(0,0)" xml:space="preserve"><tspan xml:space="preserve" text-rendering="optimizeSpeed" font-size="10" font-weight="normal" font-style="normal" text-decoration="none" fill="#000" opacity="1" x="0" text-anchor="start" y="9.375" textLength="19.35221290588379" style="font-family: Arial, Helvetica Neue, Helvetica, sans-serif;">6' 3"</tspan></text></g><g transform="scale(1,1) translate(0,0)" fill="black" opacity="0"><path d="M90.846,72.135 L90.846,66.406 L96.575,69.271 L90.846,72.135 z"/></g><g transform="scale(1,1) translate(0,0)" fill="black" opacity="0"><path d="M65.764,72.135 L65.764,66.406 L60.035,69.271 L65.764,72.135 z"/></g><g width="19.35221290588379" height="11.458333015441895" transform="rotate(270,-16.792,116.759) scale(1,1) translate(-16.792,116.759)" opacity="0"><text width="19.35221290588379" height="11.458333015441895" transform="scale(1,1) translate(0,0)" xml:space="preserve"><tspan xml:space="preserve" text-rendering="optimizeSpeed" font-size="10" font-weight="normal" font-style="normal" text-decoration="none" fill="#000" opacity="1" x="0" text-anchor="start" y="9.375" textLength="19.35221290588379" style="font-family: Arial, Helvetica Neue, Helvetica, sans-serif;">2' 2"</tspan></text></g><g transform="scale(1,1) translate(0,0)" fill="black" opacity="0"><path d="M-8.198,94.543 L-13.927,94.543 L-11.062,88.813 L-8.198,94.543 z"/></g><g transform="scale(1,1) translate(0,0)" fill="black" opacity="0"><path d="M-8.198,119.624 L-13.927,119.624 L-11.062,125.353 L-8.198,119.624 z"/></g></g><g width="85.833" height="25" transform="scale(1,1) translate(757.167,1099.167)"><g stroke="#000000" stroke-opacity="1" stroke-width="0.3333333333333333" stroke-dasharray="none" width="85.833" height="25" transform="scale(1,1) translate(0,0)" fill="#BFBFBF" fill-opacity="1"><rect width="85.833" height="25"/></g><g fill="#9999FF" stroke="#9999FF" stroke-opacity="1" opacity="0" transform="scale(1,1) translate(0,0)"><path fill="none" stroke-width="1" stroke-dasharray="none" d="M0,0"/></g><g width="19.35221290588379" height="11.458333015441895" transform="scale(1,1) translate(33.241,-16.792)" opacity="0"><text width="19.35221290588379" height="11.458333015441895" transform="scale(1,1) translate(0,0)" xml:space="preserve"><tspan xml:space="preserve" text-rendering="optimizeSpeed" font-size="10" font-weight="normal" font-style="normal" text-decoration="none" fill="#000" opacity="1" x="0" text-anchor="start" y="9.375" textLength="19.35221290588379" style="font-family: Arial, Helvetica Neue, Helvetica, sans-serif;">3' 5"</tspan></text></g><g transform="scale(1,1) translate(0,0)" fill="black" opacity="0"><path d="M30.376,-13.927 L30.376,-8.198 L24.647,-11.062 L30.376,-13.927 z"/></g><g transform="scale(1,1) translate(0,0)" fill="black" opacity="0"><path d="M55.457,-13.927 L55.457,-8.198 L61.187,-11.062 L55.457,-13.927 z"/></g><g width="19.35221290588379" height="11.458333015441895" transform="rotate(270,91.167,22.176) scale(1,1) translate(91.167,22.176)" opacity="0"><text width="19.35221290588379" height="11.458333015441895" transform="scale(1,1) translate(0,0)" xml:space="preserve"><tspan xml:space="preserve" text-rendering="optimizeSpeed" font-size="10" font-weight="normal" font-style="normal" text-decoration="none" fill="#000" opacity="1" x="0" text-anchor="start" y="9.375" textLength="19.35221290588379" style="font-family: Arial, Helvetica Neue, Helvetica, sans-serif;">1' 0"</tspan></text></g><g transform="scale(1,1) translate(0,0)" fill="black" opacity="0"><path d="M99.76,-0.041 L94.031,-0.041 L96.896,-5.77 L99.76,-0.041 z"/></g><g transform="scale(1,1) translate(0,0)" fill="black" opacity="0"><path d="M99.76,25.041 L94.031,25.041 L96.896,30.77 L99.76,25.041 z"/></g></g><g width="70.167" height="13" transform="scale(1,1) translate(764.333,1121)"><g width="70.167" height="13"><g transform="scale(0.9112551403856065,0.9629635298478926) translate(0,0)"><g><g width="75" height="12.5" transform="scale(1,1) translate(0.5,0.5)"><g stroke-opacity="1" stroke="#000000" opacity="1" stroke-width="1" stroke-dasharray="none" width="75" height="12.5" transform="scale(1,1) translate(0,0)" fill-opacity="1" fill="#FFFFFF"><rect width="75" height="12.5"/></g></g><g width="75" height="0" transform="scale(1,1) translate(0.5,6.667)"><g transform="scale(1,1) translate(0,0)" fill-opacity="1" fill="#000000" stroke-opacity="1" stroke="#000000"><path d="M0,0 L75,0" fill="none" stroke-width="1" stroke-dasharray="none"/><g><g stroke-dasharray="none"><path d="M-1,-1L1,-1L1,1L-1,1z" stroke-width="0" fill="none"/></g></g></g></g></g></g></g></g><g width="55.167" height="70" transform="scale(1,1) translate(866.167,832.667)"><g stroke="#000000" stroke-opacity="1" stroke-width="0.3333333333333333" stroke-dasharray="none" width="55.167" height="70" transform="scale(1,1) translate(0,0)" fill="#BFBFBF" fill-opacity="1"><rect width="55.167" height="70"/></g><g fill="#9999FF" stroke="#9999FF" stroke-opacity="1" opacity="0" transform="scale(1,1) translate(0,0)"><path fill="none" stroke-width="1" stroke-dasharray="none" d="M0,0"/></g><g width="19.35221290588379" height="11.458333015441895" transform="scale(1,1) translate(17.907,-16.792)" opacity="0"><text width="19.35221290588379" height="11.458333015441895" transform="scale(1,1) translate(0,0)" xml:space="preserve"><tspan xml:space="preserve" text-rendering="optimizeSpeed" font-size="10" font-weight="normal" font-style="normal" text-decoration="none" fill="#000" opacity="1" x="0" text-anchor="start" y="9.375" textLength="19.35221290588379" style="font-family: Arial, Helvetica Neue, Helvetica, sans-serif;">2' 2"</tspan></text></g><g transform="scale(1,1) translate(0,0)" fill="black" opacity="0"><path d="M15.043,-13.927 L15.043,-8.198 L9.313,-11.062 L15.043,-13.927 z"/></g><g transform="scale(1,1) translate(0,0)" fill="black" opacity="0"><path d="M40.124,-13.927 L40.124,-8.198 L45.853,-11.062 L40.124,-13.927 z"/></g><g width="24.91861915588379" height="11.458333015441895" transform="rotate(270,60.5,47.459) scale(1,1) translate(60.5,47.459)" opacity="0"><text width="24.91861915588379" height="11.458333015441895" transform="scale(1,1) translate(0,0)" xml:space="preserve"><tspan xml:space="preserve" text-rendering="optimizeSpeed" font-size="10" font-weight="normal" font-style="normal" text-decoration="none" fill="#000" opacity="1" x="0" text-anchor="start" y="9.375" textLength="24.91861915588379" style="font-family: Arial, Helvetica Neue, Helvetica, sans-serif;">2' 10"</tspan></text></g><g transform="scale(1,1) translate(0,0)" fill="black" opacity="0"><path d="M69.094,19.676 L63.365,19.676 L66.229,13.947 L69.094,19.676 z"/></g><g transform="scale(1,1) translate(0,0)" fill="black" opacity="0"><path d="M69.094,50.324 L63.365,50.324 L66.229,56.053 L69.094,50.324 z"/></g></g><g width="61.833" height="60.333" transform="rotate(90,891.25,933.5) scale(1,1) translate(860.333,903.333)"><g width="61.833" height="60.333"><g transform="scale(0.354685172120883,0.29053067122351234) translate(0,0)"><g><g width="151.333" height="11.333" transform="scale(1,1) translate(11.5,195.833)"><g transform="scale(1,1) translate(0,0)" stroke-opacity="1" stroke="#000000" fill="#F2F2F2"><path d="M0,0 L151.333,0 L141.333,11.333 L10,11.333 L0,0 z" stroke-width="1" stroke-dasharray="none"/></g></g><g width="173.333" height="195.833" transform="scale(1,1) translate(0.5,0.5)"><g transform="scale(1,1) translate(0,0)" stroke-opacity="1" stroke="#000000" fill-opacity="1" fill="#E0E0E0"><path d="M0,0 L0,195.833 L173.333,195.833 L173.333,0 L0,0 z" stroke-width="1" stroke-dasharray="none"/></g></g><g width="162.667" height="24.5" transform="scale(1,1) translate(6.167,3.333)"><g transform="scale(1,1) translate(0,0)" stroke-opacity="1" stroke="#000000" fill-opacity="1" fill="#E0E0E0"><path d="M0,0 L0,24.5 L162.667,24.5 L162.667,0 L0,0 z" stroke-width="1" stroke-dasharray="none"/></g></g><g width="53.5" height="53.5" transform="scale(1,1) translate(102,48.5)"><g width="53.5" height="53.5" transform="scale(1,1) translate(0,0)" stroke="#000000" stroke-width="1" stroke-dasharray="none" fill="#000000"><ellipse rx="26.75" ry="26.75" cx="26.75" cy="26.75"/></g></g><g width="44" height="44" transform="scale(1,1) translate(106.667,53.167)"><g width="44" height="44" transform="scale(1,1) translate(0,0)" stroke="#BFBFBF" stroke-width="4" stroke-dasharray="none" fill="none"><ellipse rx="22" ry="22" cx="22" cy="22"/></g></g><g width="29" height="29" transform="scale(1,1) translate(114.167,60.667)"><g width="29" height="29" transform="scale(1,1) translate(0,0)" stroke="#BFBFBF" stroke-width="4" stroke-dasharray="none" fill="none"><ellipse rx="14.5" ry="14.5" cx="14.5" cy="14.5"/></g></g><g width="12.333" height="12.333" transform="scale(1,1) translate(122.5,69)"><g width="12.333" height="12.333" transform="scale(1,1) translate(0,0)" stroke="#BFBFBF" stroke-width="4" stroke-dasharray="none" fill="none"><ellipse rx="6.1665" ry="6.1665" cx="6.1665" cy="6.1665"/></g></g><g width="53.5" height="53.5" transform="scale(1,1) translate(102,118.333)"><g width="53.5" height="53.5" transform="scale(1,1) translate(0,0)" stroke="#000000" stroke-width="1" stroke-dasharray="none" fill="#000000"><ellipse rx="26.75" ry="26.75" cx="26.75" cy="26.75"/></g></g><g width="44" height="44" transform="scale(1,1) translate(106.667,123)"><g width="44" height="44" transform="scale(1,1) translate(0,0)" stroke="#BFBFBF" stroke-width="4" stroke-dasharray="none" fill="none"><ellipse rx="22" ry="22" cx="22" cy="22"/></g></g><g width="29" height="29" transform="scale(1,1) translate(114.167,130.5)"><g width="29" height="29" transform="scale(1,1) translate(0,0)" stroke="#BFBFBF" stroke-width="4" stroke-dasharray="none" fill="none"><ellipse rx="14.5" ry="14.5" cx="14.5" cy="14.5"/></g></g><g width="12.333" height="12.333" transform="scale(1,1) translate(122.5,138.833)"><g width="12.333" height="12.333" transform="scale(1,1) translate(0,0)" stroke="#BFBFBF" stroke-width="4" stroke-dasharray="none" fill="none"><ellipse rx="6.1665" ry="6.1665" cx="6.1665" cy="6.1665"/></g></g><g width="53.5" height="53.5" transform="scale(1,1) translate(17.333,118.333)"><g width="53.5" height="53.5" transform="scale(1,1) translate(0,0)" stroke="#000000" stroke-width="1" stroke-dasharray="none" fill="#000000"><ellipse rx="26.75" ry="26.75" cx="26.75" cy="26.75"/></g></g><g width="44" height="44" transform="scale(1,1) translate(22,123)"><g width="44" height="44" transform="scale(1,1) translate(0,0)" stroke="#BFBFBF" stroke-width="4" stroke-dasharray="none" fill="none"><ellipse rx="22" ry="22" cx="22" cy="22"/></g></g><g width="29" height="29" transform="scale(1,1) translate(29.5,130.5)"><g width="29" height="29" transform="scale(1,1) translate(0,0)" stroke="#BFBFBF" stroke-width="4" stroke-dasharray="none" fill="none"><ellipse rx="14.5" ry="14.5" cx="14.5" cy="14.5"/></g></g><g width="12.333" height="12.333" transform="scale(1,1) translate(37.833,138.833)"><g width="12.333" height="12.333" transform="scale(1,1) translate(0,0)" stroke="#BFBFBF" stroke-width="4" stroke-dasharray="none" fill="none"><ellipse rx="6.1665" ry="6.1665" cx="6.1665" cy="6.1665"/></g></g><g width="53.5" height="53.5" transform="scale(1,1) translate(17.333,48.5)"><g width="53.5" height="53.5" transform="scale(1,1) translate(0,0)" stroke="#000000" stroke-width="1" stroke-dasharray="none" fill="#000000"><ellipse rx="26.75" ry="26.75" cx="26.75" cy="26.75"/></g></g><g width="44" height="44" transform="scale(1,1) translate(22,53.167)"><g width="44" height="44" transform="scale(1,1) translate(0,0)" stroke="#BFBFBF" stroke-width="4" stroke-dasharray="none" fill="none"><ellipse rx="22" ry="22" cx="22" cy="22"/></g></g><g width="29" height="29" transform="scale(1,1) translate(29.5,60.667)"><g width="29" height="29" transform="scale(1,1) translate(0,0)" stroke="#BFBFBF" stroke-width="4" stroke-dasharray="none" fill="none"><ellipse rx="14.5" ry="14.5" cx="14.5" cy="14.5"/></g></g><g width="12.333" height="12.333" transform="scale(1,1) translate(37.833,69)"><g width="12.333" height="12.333" transform="scale(1,1) translate(0,0)" stroke="#BFBFBF" stroke-width="4" stroke-dasharray="none" fill="none"><ellipse rx="6.1665" ry="6.1665" cx="6.1665" cy="6.1665"/></g></g></g></g></g><g fill="#9999FF" stroke="#9999FF" stroke-opacity="1" opacity="0" transform="scale(1,1) translate(0,0)"><path fill="none" stroke-width="1" stroke-dasharray="none" d="M0,0"/></g><g width="19.35221290588379" height="11.458333015441895" transform="rotate(180,40.593,-6) scale(1,1) translate(40.593,-6)" opacity="0"><text width="19.35221290588379" height="11.458333015441895" transform="scale(1,1) translate(0,0)" xml:space="preserve"><tspan xml:space="preserve" text-rendering="optimizeSpeed" font-size="10" font-weight="normal" font-style="normal" text-decoration="none" fill="#000" opacity="1" x="0" text-anchor="start" y="9.375" textLength="19.35221290588379" style="font-family: Arial, Helvetica Neue, Helvetica, sans-serif;">2' 6"</tspan></text></g><g transform="scale(1,1) translate(0,0)" fill="black" opacity="0"><path d="M18.376,-14.594 L18.376,-8.865 L12.647,-11.729 L18.376,-14.594 z"/></g><g transform="scale(1,1) translate(0,0)" fill="black" opacity="0"><path d="M43.457,-14.594 L43.457,-8.865 L49.187,-11.729 L43.457,-14.594 z"/></g><g width="19.35221290588379" height="11.458333015441895" transform="rotate(270,67.833,39.843) scale(1,1) translate(67.833,39.843)" opacity="0"><text width="19.35221290588379" height="11.458333015441895" transform="scale(1,1) translate(0,0)" xml:space="preserve"><tspan xml:space="preserve" text-rendering="optimizeSpeed" font-size="10" font-weight="normal" font-style="normal" text-decoration="none" fill="#000" opacity="1" x="0" text-anchor="start" y="9.375" textLength="19.35221290588379" style="font-family: Arial, Helvetica Neue, Helvetica, sans-serif;">2' 5"</tspan></text></g><g transform="scale(1,1) translate(0,0)" fill="black" opacity="0"><path d="M76.427,17.626 L70.698,17.626 L73.562,11.897 L76.427,17.626 z"/></g><g transform="scale(1,1) translate(0,0)" fill="black" opacity="0"><path d="M76.427,42.707 L70.698,42.707 L73.562,48.437 L76.427,42.707 z"/></g></g><g width="62.833" height="72.167" transform="rotate(90,886.417,800.917) scale(1,1) translate(855,764.833)"><g width="62.833" height="72.167"><g transform="scale(0.4165726646697528,0.4325683268617265) translate(0,0)"><g><g width="38.5" height="15" transform="scale(1,1) translate(3,150.333)"><g stroke-opacity="1" stroke="#000000" opacity="1" stroke-width="1" stroke-dasharray="none" width="38.5" height="15" transform="scale(1,1) translate(0,0)" fill-opacity="1" fill="#E0E0E0"><rect width="38.5" height="15"/></g></g><g width="146.5" height="135.167" transform="scale(1,1) translate(2.5,2.5)"><g transform="scale(1,1) translate(0,0)" stroke-opacity="1" stroke="#000000" fill-opacity="1" fill="#E0E0E0"><path d="M0,0 L146.5,0 L146.5,135.167 L0,135.167 L0,0 z" stroke-width="1" stroke-dasharray="none"/></g></g><g width="0" height="135.167" transform="scale(1,1) translate(0.5,2.5)"><g transform="scale(1,1) translate(0,0)" fill-opacity="1" fill="#000000" stroke-opacity="1" stroke="#000000"><path d="M0,0 L0,135.167" fill="none" stroke-width="1" stroke-dasharray="none"/><g><g stroke-dasharray="none"><path d="M-1,-1L1,-1L1,1L-1,1z" stroke-width="0" fill="none"/></g></g></g></g><g width="145.333" height="0" transform="scale(1,1) translate(2.5,136.167)"><g transform="scale(1,1) translate(0,0)" fill-opacity="1" fill="#000000" stroke-opacity="1" stroke="#000000"><path d="M0,0 L145.333,0" fill="none" stroke-width="1" stroke-dasharray="none"/><g><g stroke-dasharray="none"><path d="M-1,-1L1,-1L1,1L-1,1z" stroke-width="0" fill="none"/></g></g></g></g><g width="0" height="135.167" transform="scale(1,1) translate(145.167,2.5)"><g transform="scale(1,1) translate(0,0)" fill-opacity="1" fill="#000000" stroke-opacity="1" stroke="#000000"><path d="M0,0 L0,135.167" fill="none" stroke-width="1" stroke-dasharray="none"/><g><g stroke-dasharray="none"><path d="M-1,-1L1,-1L1,1L-1,1z" stroke-width="0" fill="none"/></g></g></g></g><g width="145.333" height="0" transform="scale(1,1) translate(2.5,0.5)"><g transform="scale(1,1) translate(0,0)" fill-opacity="1" fill="#000000" stroke-opacity="1" stroke="#000000"><path d="M0,0 L145.333,0" fill="none" stroke-width="1" stroke-dasharray="none"/><g><g stroke-dasharray="none"><path d="M-1,-1L1,-1L1,1L-1,1z" stroke-width="0" fill="none"/></g></g></g></g><g width="147.167" height="15" transform="scale(1,1) translate(2.167,139.5)"><g transform="scale(1,1) translate(0,0)" stroke-opacity="1" stroke="#000000" fill-opacity="1" fill="#E0E0E0"><path d="M147.167,0 L0,0 L0,15 L147.167,15 L147.167,0 z" stroke-width="1" stroke-dasharray="none"/></g></g></g></g></g><g fill="#9999FF" stroke="#9999FF" stroke-opacity="1" opacity="0" transform="scale(1,1) translate(0,0)"><path fill="none" stroke-width="1" stroke-dasharray="none" d="M0,0"/></g><g width="19.35221290588379" height="11.458333015441895" transform="rotate(180,41.093,-6) scale(1,1) translate(41.093,-6)" opacity="0"><text width="19.35221290588379" height="11.458333015441895" transform="scale(1,1) translate(0,0)" xml:space="preserve"><tspan xml:space="preserve" text-rendering="optimizeSpeed" font-size="10" font-weight="normal" font-style="normal" text-decoration="none" fill="#000" opacity="1" x="0" text-anchor="start" y="9.375" textLength="19.35221290588379" style="font-family: Arial, Helvetica Neue, Helvetica, sans-serif;">2' 6"</tspan></text></g><g transform="scale(1,1) translate(0,0)" fill="black" opacity="0"><path d="M18.876,-14.594 L18.876,-8.865 L13.147,-11.729 L18.876,-14.594 z"/></g><g transform="scale(1,1) translate(0,0)" fill="black" opacity="0"><path d="M43.957,-14.594 L43.957,-8.865 L49.687,-11.729 L43.957,-14.594 z"/></g><g width="24.169921875" height="11.458333015441895" transform="rotate(270,68.833,48.168) scale(1,1) translate(68.833,48.168)" opacity="0"><text width="24.169921875" height="11.458333015441895" transform="scale(1,1) translate(0,0)" xml:space="preserve"><tspan xml:space="preserve" text-rendering="optimizeSpeed" font-size="10" font-weight="normal" font-style="normal" text-decoration="none" fill="#000" opacity="1" x="0" text-anchor="start" y="9.375" textLength="24.169921875" style="font-family: Arial, Helvetica Neue, Helvetica, sans-serif;">2' 11"</tspan></text></g><g transform="scale(1,1) translate(0,0)" fill="black" opacity="0"><path d="M77.427,21.134 L71.698,21.134 L74.562,15.405 L77.427,21.134 z"/></g><g transform="scale(1,1) translate(0,0)" fill="black" opacity="0"><path d="M77.427,51.033 L71.698,51.033 L74.562,56.762 L77.427,51.033 z"/></g></g><g width="83.333" height="141.667" transform="scale(1,1) translate(698,818.333)"><g stroke="#000000" stroke-opacity="1" stroke-width="0.3333333333333333" stroke-dasharray="none" width="83.333" height="141.667" transform="scale(1,1) translate(0,0)" fill="#BFBFBF" fill-opacity="1"><rect width="83.333" height="141.667"/></g><g fill="#9999FF" stroke="#9999FF" stroke-opacity="1" opacity="0" transform="scale(1,1) translate(0,0)"><path fill="none" stroke-width="1" stroke-dasharray="none" d="M0,0"/></g><g width="19.35221290588379" height="11.458333015441895" transform="scale(1,1) translate(31.991,-16.792)" opacity="0"><text width="19.35221290588379" height="11.458333015441895" transform="scale(1,1) translate(0,0)" xml:space="preserve"><tspan xml:space="preserve" text-rendering="optimizeSpeed" font-size="10" font-weight="normal" font-style="normal" text-decoration="none" fill="#000" opacity="1" x="0" text-anchor="start" y="9.375" textLength="19.35221290588379" style="font-family: Arial, Helvetica Neue, Helvetica, sans-serif;">3' 4"</tspan></text></g><g transform="scale(1,1) translate(0,0)" fill="black" opacity="0"><path d="M29.126,-13.927 L29.126,-8.198 L23.397,-11.062 L29.126,-13.927 z"/></g><g transform="scale(1,1) translate(0,0)" fill="black" opacity="0"><path d="M54.207,-13.927 L54.207,-8.198 L59.937,-11.062 L54.207,-13.927 z"/></g><g width="19.35221290588379" height="11.458333015441895" transform="rotate(270,88.667,80.509) scale(1,1) translate(88.667,80.509)" opacity="0"><text width="19.35221290588379" height="11.458333015441895" transform="scale(1,1) translate(0,0)" xml:space="preserve"><tspan xml:space="preserve" text-rendering="optimizeSpeed" font-size="10" font-weight="normal" font-style="normal" text-decoration="none" fill="#000" opacity="1" x="0" text-anchor="start" y="9.375" textLength="19.35221290588379" style="font-family: Arial, Helvetica Neue, Helvetica, sans-serif;">5' 8"</tspan></text></g><g transform="scale(1,1) translate(0,0)" fill="black" opacity="0"><path d="M97.26,58.293 L91.531,58.293 L94.396,52.563 L97.26,58.293 z"/></g><g transform="scale(1,1) translate(0,0)" fill="black" opacity="0"><path d="M97.26,83.374 L91.531,83.374 L94.396,89.103 L97.26,83.374 z"/></g></g><g width="156" height="206.167" transform="scale(1,1) translate(499.5,392.667)"><g width="156" height="206.167" transform="scale(1,1) translate(0,0)"><g width="93.667" height="79.5" transform="scale(1,1) translate(54.833,120.667)"><g width="93.667" height="79.5" transform="scale(1.0465549348230911,1.0460526315789473) translate(0,0)"><g width="75" height="88" transform="rotate(270,45,38) scale(1,1) translate(7.5,-6)"><g stroke="#000000" stroke-opacity="1" stroke-width="1" stroke-dasharray="none" width="75" height="88" transform="scale(1,1) translate(0,0)" fill="#D8D8D8" fill-opacity="1"><rect width="75" height="88"/></g></g><g width="88" height="0" transform="scale(1,1) translate(0.5,26.167)"><g transform="scale(1,1) translate(0,0)" fill="#000000" stroke="#000000" stroke-opacity="1"><path d="M0,0 L88,0" fill="none" stroke-width="1" stroke-dasharray="none"/><g><g stroke-dasharray="none"><path d="M-1,-1L1,-1L1,1L-1,1z" stroke-width="0" fill="none"/></g></g></g></g><g width="88" height="0" transform="scale(1,1) translate(0.5,50.5)"><g transform="scale(1,1) translate(0,0)" fill="#000000" stroke="#000000" stroke-opacity="1"><path d="M0,0 L88,0" fill="none" stroke-width="1" stroke-dasharray="none"/><g><g stroke-dasharray="none"><path d="M-1,-1L1,-1L1,1L-1,1z" stroke-width="0" fill="none"/></g></g></g></g></g></g><g width="99.667" height="0" transform="scale(1,1) translate(52.167,202)"><g transform="scale(1,1) translate(0,0)" fill="#000000" stroke="#000000" stroke-opacity="1"><path d="M0,0 L99.667,0" fill="none" stroke-width="8.333" stroke-dasharray="none"/><g><g stroke-dasharray="none"><path d="M-8.333,-8.333L8.333,-8.333L8.333,8.333L-8.333,8.333z" stroke-width="0" fill="none"/></g></g></g></g><g width="147.667" height="121.333" transform="scale(1,1) translate(0.5,0.5)"><g transform="scale(1,1) translate(0,0)" stroke="#000000" fill="#D8D8D8" fill-opacity="1" stroke-opacity="1"><path d="M128.667,65.667 L98.167,35.667 L63.833,0 L0,64.333 L56.5,121.333 L147.667,121.333 L147.667,83.833 L128.667,65.667 z" stroke-width="1" stroke-dasharray="none"/></g></g><g width="67" height="62.167" transform="scale(1,1) translate(54.833,58.5)"><g transform="scale(1,1) translate(0,0)" fill="#000000" stroke="#000000" stroke-opacity="1"><path d="M0,62.167 L67,0" fill="none" stroke-width="1" stroke-dasharray="none"/><g><g stroke-dasharray="none"><path d="M-1,61.167L1,61.167L1,63.167L-1,63.167z" stroke-width="0" fill="none"/></g></g></g></g><g width="93.167" height="34.333" transform="scale(1,1) translate(55.5,85.667)"><g transform="scale(1,1) translate(0,0)" fill="#000000" stroke="#000000" stroke-opacity="1"><path d="M0,34.333 L93.167,0" fill="none" stroke-width="1" stroke-dasharray="none"/><g><g stroke-dasharray="none"><path d="M-1,33.333L1,33.333L1,35.333L-1,35.333z" stroke-width="0" fill="none"/></g></g></g></g><g width="63.833" height="63" transform="scale(1,1) translate(36.667,38.833)"><g transform="scale(1,1) translate(0,0)" fill="#000000" stroke="#000000" stroke-opacity="1"><path d="M0,63 L63.833,0" fill="none" stroke-width="1" stroke-dasharray="none"/><g><g stroke-dasharray="none"><path d="M-1,62L1,62L1,64L-1,64z" stroke-width="0" fill="none"/></g></g></g></g><g width="63.667" height="63.833" transform="scale(1,1) translate(17.833,19)"><g transform="scale(1,1) translate(0,0)" fill="#000000" stroke="#000000" stroke-opacity="1"><path d="M0,63.833 L63.667,0" fill="none" stroke-width="1" stroke-dasharray="none"/><g><g stroke-dasharray="none"><path d="M-1,62.833L1,62.833L1,64.833L-1,64.833z" stroke-width="0" fill="none"/></g></g></g></g></g></g><g width="118.667" height="13" transform="scale(1,1) translate(493.667,1095.333)"><g width="118.667" height="13"><g transform="scale(1.5411250830274392,0.9629635298478926) translate(0,0)"><g><g width="75" height="12.5" transform="scale(1,1) translate(0.5,0.5)"><g stroke-opacity="1" stroke="#000000" opacity="1" stroke-width="1" stroke-dasharray="none" width="75" height="12.5" transform="scale(1,1) translate(0,0)" fill-opacity="1" fill="#FFFFFF"><rect width="75" height="12.5"/></g></g><g width="75" height="0" transform="scale(1,1) translate(0.5,6.667)"><g transform="scale(1,1) translate(0,0)" fill-opacity="1" fill="#000000" stroke-opacity="1" stroke="#000000"><path d="M0,0 L75,0" fill="none" stroke-width="1" stroke-dasharray="none"/><g><g stroke-dasharray="none"><path d="M-1,-1L1,-1L1,1L-1,1z" stroke-width="0" fill="none"/></g></g></g></g></g></g></g><g fill="#9999FF" stroke="#9999FF" stroke-opacity="1" opacity="0" transform="scale(1,1) translate(0,0)"><path fill="none" stroke-width="1" stroke-dasharray="none" d="M0,0"/></g><g width="19.35221290588379" height="11.458333015441895" transform="scale(1,1) translate(49.657,-17.458)" opacity="0"><text width="19.35221290588379" height="11.458333015441895" transform="scale(1,1) translate(0,0)" xml:space="preserve"><tspan xml:space="preserve" text-rendering="optimizeSpeed" font-size="10" font-weight="normal" font-style="normal" text-decoration="none" fill="#000" opacity="1" x="0" text-anchor="start" y="9.375" textLength="19.35221290588379" style="font-family: Arial, Helvetica Neue, Helvetica, sans-serif;">4' 9"</tspan></text></g><g transform="scale(1,1) translate(0,0)" fill="black" opacity="0"><path d="M46.793,-14.594 L46.793,-8.865 L41.063,-11.729 L46.793,-14.594 z"/></g><g transform="scale(1,1) translate(0,0)" fill="black" opacity="0"><path d="M71.874,-14.594 L71.874,-8.865 L77.603,-11.729 L71.874,-14.594 z"/></g><g width="19.35221290588379" height="11.458333015441895" transform="rotate(270,124.667,16.176) scale(1,1) translate(124.667,16.176)" opacity="0"><text width="19.35221290588379" height="11.458333015441895" transform="scale(1,1) translate(0,0)" xml:space="preserve"><tspan xml:space="preserve" text-rendering="optimizeSpeed" font-size="10" font-weight="normal" font-style="normal" text-decoration="none" fill="#000" opacity="1" x="0" text-anchor="start" y="9.375" textLength="19.35221290588379" style="font-family: Arial, Helvetica Neue, Helvetica, sans-serif;">0' 6"</tspan></text></g><g transform="scale(1,1) translate(0,0)" fill="black" opacity="0"><path d="M133.26,-6.041 L127.531,-6.041 L130.396,-11.77 L133.26,-6.041 z"/></g><g transform="scale(1,1) translate(0,0)" fill="black" opacity="0"><path d="M133.26,19.041 L127.531,19.041 L130.396,24.77 L133.26,19.041 z"/></g></g><g width="187" height="102.5" transform="scale(1,1) translate(462,596.333)"><g width="187" height="102.5" transform="scale(1,1) translate(0,0)"><g width="185.5" height="100.5" transform="scale(1,1) translate(0.5,1)"><g stroke="#000000" stroke-opacity="1" stroke-width="1" stroke-dasharray="none" width="185.5" height="100.5" transform="scale(1,1) translate(0,0)" fill="#D8D8D8" fill-opacity="1"><rect width="185.5" height="100.5"/></g></g><g width="0" height="100.5" transform="scale(1,1) translate(31.167,0.5)"><g transform="scale(1,1) translate(0,0)" fill="#000000" stroke="#000000" stroke-opacity="1"><path d="M0,0 L0,100.5" fill="none" stroke-width="1" stroke-dasharray="none"/><g><g stroke-dasharray="none"><path d="M-1,-1L1,-1L1,1L-1,1z" stroke-width="0" fill="none"/></g></g></g></g><g width="0" height="100.5" transform="scale(1,1) translate(60.833,0.5)"><g transform="scale(1,1) translate(0,0)" fill="#000000" stroke="#000000" stroke-opacity="1"><path d="M0,0 L0,100.5" fill="none" stroke-width="1" stroke-dasharray="none"/><g><g stroke-dasharray="none"><path d="M-1,-1L1,-1L1,1L-1,1z" stroke-width="0" fill="none"/></g></g></g></g><g width="0" height="101.5" transform="scale(1,1) translate(89.5,0.5)"><g transform="scale(1,1) translate(0,0)" fill="#000000" stroke="#000000" stroke-opacity="1"><path d="M0,0 L0,101.5" fill="none" stroke-width="1" stroke-dasharray="none"/><g><g stroke-dasharray="none"><path d="M-1,-1L1,-1L1,1L-1,1z" stroke-width="0" fill="none"/></g></g></g></g><g width="54.167" height="100.5" transform="scale(1,1) translate(89.5,1.5)"><g transform="scale(1,1) translate(0,0)" fill="#000000" stroke="#000000" stroke-opacity="1"><path d="M0,0 L54.167,100.5" fill="none" stroke-width="1" stroke-dasharray="none"/><g><g stroke-dasharray="none"><path d="M-1,-1L1,-1L1,1L-1,1z" stroke-width="0" fill="none"/></g></g></g></g><g width="97" height="62.5" transform="scale(1,1) translate(89.5,1.5)"><g transform="scale(1,1) translate(0,0)" fill="#000000" stroke="#000000" stroke-opacity="1"><path d="M0,0 L97,62.5" fill="none" stroke-width="1" stroke-dasharray="none"/><g><g stroke-dasharray="none"><path d="M-1,-1L1,-1L1,1L-1,1z" stroke-width="0" fill="none"/></g></g></g></g></g></g><g width="58" height="58" transform="rotate(270,480.667,648.333) scale(1,1) translate(451.667,619.333)"><g width="58" height="58"><g transform="scale(0.9886307280739549,1.0132597401952612) translate(0,0)"><g><g width="56.667" height="43.908" transform="scale(1,1) translate(0.5,12.833)"><g transform="scale(1,1) translate(0,0)" fill-opacity="1" fill="#000000" stroke-opacity="1" stroke="#000000"><path d="M56.667,0 L56.667,0 L56.536,2.235 L56.311,4.344 L56.004,6.345 L55.627,8.25 L55.186,10.072 L54.687,11.816 L54.137,13.492 L53.538,15.102 L52.894,16.654 L52.209,18.149 L51.484,19.592 L50.721,20.984 L49.923,22.329 L49.09,23.629 L48.225,24.884 L47.328,26.097 L46.4,27.269 L45.441,28.4 L44.453,29.492 L43.437,30.546 L42.391,31.562 L41.318,32.54 L40.217,33.481 L39.088,34.385 L37.932,35.252 L36.748,36.083 L35.536,36.877 L34.296,37.633 L33.028,38.352 L31.732,39.033 L30.407,39.676 L29.053,40.279 L27.668,40.842 L26.252,41.364 L24.805,41.843 L23.324,42.278 L21.81,42.668 L20.259,43.01 L18.671,43.302 L17.044,43.541 L15.374,43.725 L13.66,43.849 L11.898,43.908 L10.083,43.898 L8.212,43.812 L6.276,43.641 L4.27,43.375 L2.182,43 L0,42.5 L0,42.5 L0,0.5" fill="none" stroke-width="1" stroke-dasharray="none"/><g><g stroke-dasharray="none"><path d="M55.667,-1L57.667,-1L57.667,1L55.667,1z" stroke-width="0" fill="none"/></g></g></g></g><g width="57" height="14" transform="scale(1,1) translate(0.667,0)"><g stroke="#BFBFBF" opacity="1" stroke-width="0" stroke-dasharray="none" width="57" height="14" transform="scale(1,1) translate(0,0)" fill="#FFFFFF"><rect width="57" height="14"/></g></g></g></g></g></g><g width="50.833" height="49" transform="scale(1,1) translate(597.5,428.333)"><g transform="scale(1,1) translate(0,0)" stroke="#000000" fill="#000000" fill-opacity="1" stroke-opacity="1"><path d="M0,0 L50.833,0 L50.833,49 L0,0 z" stroke-width="1" stroke-dasharray="none"/></g></g><g width="77.917" height="46.667" transform="scale(1,1) translate(654.583,653.75)"><g stroke="#000000" stroke-opacity="1" stroke-width="0.3333333333333333" stroke-dasharray="none" width="77.917" height="46.667" transform="scale(1,1) translate(0,0)" fill="#BFBFBF" fill-opacity="1"><rect width="77.917" height="46.667"/></g><g fill="#9999FF" stroke="#9999FF" stroke-opacity="1" opacity="0" transform="scale(1,1) translate(0,0)"><path fill="none" stroke-width="1" stroke-dasharray="none" d="M0,0"/></g><g width="19.35221290588379" height="11.458333015441895" transform="scale(1,1) translate(29.282,-16.792)" opacity="0"><text width="19.35221290588379" height="11.458333015441895" transform="scale(1,1) translate(0,0)" xml:space="preserve"><tspan xml:space="preserve" text-rendering="optimizeSpeed" font-size="10" font-weight="normal" font-style="normal" text-decoration="none" fill="#000" opacity="1" x="0" text-anchor="start" y="9.375" textLength="19.35221290588379" style="font-family: Arial, Helvetica Neue, Helvetica, sans-serif;">3' 1"</tspan></text></g><g transform="scale(1,1) translate(0,0)" fill="black" opacity="0"><path d="M26.418,-13.927 L26.418,-8.198 L20.688,-11.062 L26.418,-13.927 z"/></g><g transform="scale(1,1) translate(0,0)" fill="black" opacity="0"><path d="M51.499,-13.927 L51.499,-8.198 L57.228,-11.062 L51.499,-13.927 z"/></g><g width="24.91861915588379" height="11.458333015441895" transform="rotate(270,83.25,35.793) scale(1,1) translate(83.25,35.793)" opacity="0"><text width="24.91861915588379" height="11.458333015441895" transform="scale(1,1) translate(0,0)" xml:space="preserve"><tspan xml:space="preserve" text-rendering="optimizeSpeed" font-size="10" font-weight="normal" font-style="normal" text-decoration="none" fill="#000" opacity="1" x="0" text-anchor="start" y="9.375" textLength="24.91861915588379" style="font-family: Arial, Helvetica Neue, Helvetica, sans-serif;">1' 10"</tspan></text></g><g transform="scale(1,1) translate(0,0)" fill="black" opacity="0"><path d="M91.844,8.009 L86.115,8.009 L88.979,2.28 L91.844,8.009 z"/></g><g transform="scale(1,1) translate(0,0)" fill="black" opacity="0"><path d="M91.844,38.657 L86.115,38.657 L88.979,44.386 L91.844,38.657 z"/></g></g><g width="137.333" height="225.333" transform="scale(1,1) translate(651,424.667)"><g transform="scale(1,1) translate(0,0)" fill="none" stroke="#000000" stroke-opacity="1"><path d="M0,225.333 L0,0 L137.333,0 L137.333,194 L83.667,194 L83.667,225.333 L0,225.333 z" stroke-width="8.333" stroke-dasharray="none"/></g></g><g width="58" height="58" transform="scale(1,1) translate(667,417.333)"><g width="58" height="58"><g transform="scale(0.9886307280739549,1.0132597401952612) translate(0,0)"><g><g width="56.667" height="43.908" transform="scale(1,1) translate(0.5,12.833)"><g transform="scale(1,1) translate(0,0)" fill-opacity="1" fill="#000000" stroke-opacity="1" stroke="#000000"><path d="M56.667,0 L56.667,0 L56.536,2.235 L56.311,4.344 L56.004,6.345 L55.627,8.25 L55.186,10.072 L54.687,11.816 L54.137,13.492 L53.538,15.102 L52.894,16.654 L52.209,18.149 L51.484,19.592 L50.721,20.984 L49.923,22.329 L49.09,23.629 L48.225,24.884 L47.328,26.097 L46.4,27.269 L45.441,28.4 L44.453,29.492 L43.437,30.546 L42.391,31.562 L41.318,32.54 L40.217,33.481 L39.088,34.385 L37.932,35.252 L36.748,36.083 L35.536,36.877 L34.296,37.633 L33.028,38.352 L31.732,39.033 L30.407,39.676 L29.053,40.279 L27.668,40.842 L26.252,41.364 L24.805,41.843 L23.324,42.278 L21.81,42.668 L20.259,43.01 L18.671,43.302 L17.044,43.541 L15.374,43.725 L13.66,43.849 L11.898,43.908 L10.083,43.898 L8.212,43.812 L6.276,43.641 L4.27,43.375 L2.182,43 L0,42.5 L0,42.5 L0,0.5" fill="none" stroke-width="1" stroke-dasharray="none"/><g><g stroke-dasharray="none"><path d="M55.667,-1L57.667,-1L57.667,1L55.667,1z" stroke-width="0" fill="none"/></g></g></g></g><g width="57" height="14" transform="scale(1,1) translate(0.667,0)"><g stroke="#BFBFBF" opacity="1" stroke-width="0" stroke-dasharray="none" width="57" height="14" transform="scale(1,1) translate(0,0)" fill="#FFFFFF"><rect width="57" height="14"/></g></g></g></g></g></g><g width="47.833" height="106.333" transform="scale(1,1) translate(736.5,429.167)"><g stroke="#000000" stroke-opacity="1" stroke-width="0.3333333333333333" stroke-dasharray="none" width="47.833" height="106.333" transform="scale(1,1) translate(0,0)" fill="#BFBFBF" fill-opacity="1"><rect width="47.833" height="106.333"/></g><g fill="#9999FF" stroke="#9999FF" stroke-opacity="1" opacity="0" transform="scale(1,1) translate(0,0)"><path fill="none" stroke-width="1" stroke-dasharray="none" d="M0,0"/></g><g width="24.169921875" height="11.458333015441895" transform="scale(1,1) translate(11.832,-16.792)" opacity="0"><text width="24.169921875" height="11.458333015441895" transform="scale(1,1) translate(0,0)" xml:space="preserve"><tspan xml:space="preserve" text-rendering="optimizeSpeed" font-size="10" font-weight="normal" font-style="normal" text-decoration="none" fill="#000" opacity="1" x="0" text-anchor="start" y="9.375" textLength="24.169921875" style="font-family: Arial, Helvetica Neue, Helvetica, sans-serif;">1' 11"</tspan></text></g><g transform="scale(1,1) translate(0,0)" fill="black" opacity="0"><path d="M8.967,-13.927 L8.967,-8.198 L3.238,-11.062 L8.967,-13.927 z"/></g><g transform="scale(1,1) translate(0,0)" fill="black" opacity="0"><path d="M38.866,-13.927 L38.866,-8.198 L44.595,-11.062 L38.866,-13.927 z"/></g><g width="19.35221290588379" height="11.458333015441895" transform="rotate(270,53.167,62.843) scale(1,1) translate(53.167,62.843)" opacity="0"><text width="19.35221290588379" height="11.458333015441895" transform="scale(1,1) translate(0,0)" xml:space="preserve"><tspan xml:space="preserve" text-rendering="optimizeSpeed" font-size="10" font-weight="normal" font-style="normal" text-decoration="none" fill="#000" opacity="1" x="0" text-anchor="start" y="9.375" textLength="19.35221290588379" style="font-family: Arial, Helvetica Neue, Helvetica, sans-serif;">4' 3"</tspan></text></g><g transform="scale(1,1) translate(0,0)" fill="black" opacity="0"><path d="M61.76,40.626 L56.031,40.626 L58.896,34.897 L61.76,40.626 z"/></g><g transform="scale(1,1) translate(0,0)" fill="black" opacity="0"><path d="M61.76,65.707 L56.031,65.707 L58.896,71.437 L61.76,65.707 z"/></g></g><g width="38" height="50" transform="rotate(90,759,568.833) scale(1,1) translate(740,543.833)"><g width="38" height="50"><g transform="scale(1.0044141309461656,0.9868355979153143) translate(0,0)"><g><g width="31.5" height="25.833" transform="scale(1,1) translate(3.167,15)"><g transform="scale(1,1) translate(0,0)" stroke-opacity="1" stroke="#000000" fill-opacity="1" fill="#FFFFFF"><path d="M0.999,0 L0.999,0 L0.884,0.528 L0.776,1.056 L0.675,1.583 L0.582,2.11 L0.496,2.636 L0.417,3.161 L0.345,3.686 L0.28,4.21 L0.222,4.733 L0.171,5.256 L0.126,5.778 L0.088,6.299 L0.057,6.82 L0.033,7.34 L0.015,7.86 L0.004,8.379 L0,8.898 L0.002,9.415 L0.011,9.933 L0.026,10.45 L0.048,10.966 L0.076,11.481 L0.11,11.996 L0.152,12.51 L0.199,13.024 L0.253,13.537 L0.314,14.05 L0.381,14.562 L0.455,15.074 L0.535,15.584 L0.621,16.095 L0.714,16.604 L0.814,17.113 L0.92,17.622 L1.033,18.13 L1.153,18.637 L1.279,19.144 L1.412,19.65 L1.551,20.155 L1.698,20.66 L1.851,21.164 L2.012,21.668 L2.179,22.171 L2.353,22.673 L2.534,23.175 L2.723,23.676 L2.919,24.176 L3.122,24.676 L3.332,25.175 L3.332,25.175 L29.832,25.833 L29.832,25.833 L29.932,25.31 L30.03,24.787 L30.124,24.264 L30.216,23.74 L30.305,23.216 L30.392,22.692 L30.475,22.168 L30.556,21.644 L30.634,21.12 L30.709,20.595 L30.781,20.07 L30.851,19.545 L30.918,19.02 L30.982,18.495 L31.044,17.969 L31.102,17.444 L31.158,16.918 L31.211,16.392 L31.262,15.866 L31.309,15.339 L31.354,14.813 L31.397,14.286 L31.436,13.759 L31.473,13.232 L31.507,12.705 L31.538,12.178 L31.567,11.65 L31.593,11.122 L31.616,10.594 L31.636,10.066 L31.654,9.538 L31.668,9.01 L31.68,8.481 L31.69,7.952 L31.696,7.423 L31.7,6.894 L31.701,6.365 L31.7,5.835 L31.695,5.306 L31.688,4.776 L31.678,4.246 L31.666,3.716 L31.65,3.186 L31.632,2.655 L31.611,2.124 L31.587,1.594 L31.56,1.063 L31.531,0.531 L31.499,0 L31.499,0 L0.999,0 z" stroke-width="1" stroke-dasharray="none"/></g></g><g width="32.667" height="36.5" transform="scale(1,1) translate(2.5,13.667)"><g width="32.667" height="36.5" transform="scale(1,1) translate(0,0)" stroke-opacity="1" stroke="#000000" stroke-width="1" stroke-dasharray="none" fill-opacity="1" fill="#FFFFFF"><ellipse rx="16.3335" ry="18.25" cx="16.3335" cy="18.25"/></g></g><g width="17.833" height="4.833" transform="scale(1,1) translate(10,14.333)"><g transform="scale(1,1) translate(0,0)" stroke-opacity="1" stroke="#000000" fill-opacity="1" fill="#FFFFFF"><path d="M0.706,0 L0.706,0 L0.53,0 L0.53,0 L0.53,0 L0.53,0 L0.353,0 L0.353,0 L0.353,0 L0.353,0 L0.353,0.201 L0.353,0.201 L0.353,0.201 L0.353,0.201 L0.177,0.201 L0.177,0.201 L0.177,0.201 L0.177,0.201 L0.177,0.201 L0.177,0.201 L0.177,0.403 L0.177,0.403 L0.177,0.403 L0.177,0.403 L0.177,0.403 L0.177,0.403 L0.177,0.403 L0.177,0.403 L0.177,0.403 L0.177,0.403 L0.177,0.604 L0.177,0.604 L0.177,0.604 L0.177,0.604 L0.177,0.604 L0.177,0.604 L0.177,0.604 L0.177,0.604 L0.177,0.604 L0,0.806 L0,4.028 L0.177,4.028 L0.177,4.028 L0.177,4.028 L0.177,4.028 L0.177,4.028 L0.177,4.028 L0.177,4.028 L0.177,4.028 L0.177,4.028 L0.177,4.229 L0.177,4.229 L0.177,4.229 L0.177,4.229 L0.177,4.229 L0.177,4.229 L0.177,4.229 L0.177,4.229 L0.177,4.229 L0.177,4.229 L0.177,4.431 L0.177,4.431 L0.177,4.431 L0.177,4.431 L0.177,4.431 L0.177,4.431 L0.353,4.431 L0.353,4.431 L0.353,4.431 L0.353,4.431 L0.353,4.632 L0.353,4.632 L0.353,4.632 L0.353,4.632 L0.53,4.632 L0.53,4.632 L0.53,4.632 L0.53,4.632 L0.706,4.632 L0.706,4.833 L17.127,4.833 L17.127,4.833 L17.304,4.833 L17.304,4.833 L17.304,4.833 L17.304,4.833 L17.48,4.833 L17.48,4.833 L17.48,4.833 L17.48,4.833 L17.48,4.632 L17.48,4.632 L17.48,4.632 L17.48,4.632 L17.657,4.632 L17.657,4.632 L17.657,4.632 L17.657,4.632 L17.657,4.632 L17.657,4.632 L17.657,4.431 L17.657,4.431 L17.657,4.431 L17.657,4.431 L17.657,4.431 L17.657,4.431 L17.657,4.431 L17.657,4.431 L17.657,4.431 L17.657,4.431 L17.657,4.229 L17.657,4.229 L17.657,4.229 L17.657,4.229 L17.657,4.229 L17.657,4.229 L17.657,4.229 L17.657,4.229 L17.657,4.229 L17.833,4.028 L17.833,0.806 L17.657,0.806 L17.657,0.806 L17.657,0.806 L17.657,0.806 L17.657,0.806 L17.657,0.806 L17.657,0.806 L17.657,0.806 L17.657,0.806 L17.657,0.604 L17.657,0.604 L17.657,0.604 L17.657,0.604 L17.657,0.604 L17.657,0.604 L17.657,0.604 L17.657,0.604 L17.657,0.604 L17.657,0.604 L17.657,0.403 L17.657,0.403 L17.657,0.403 L17.657,0.403 L17.657,0.403 L17.657,0.403 L17.48,0.403 L17.48,0.403 L17.48,0.403 L17.48,0.403 L17.48,0.201 L17.48,0.201 L17.48,0.201 L17.48,0.201 L17.304,0.201 L17.304,0.201 L17.304,0.201 L17.304,0.201 L17.127,0.201 L17.127,0 L0.706,0 z" stroke-width="1" stroke-dasharray="none"/></g></g><g width="36.833" height="15" transform="scale(1,1) translate(0.5,0.5)"><g transform="scale(1,1) translate(0,0)" stroke-opacity="1" stroke="#000000" fill-opacity="1" fill="#FFFFFF"><path d="M3.041,0 L2.365,0 L2.196,0 L2.028,0.165 L1.859,0.165 L1.69,0.33 L1.521,0.33 L1.352,0.495 L1.352,0.495 L1.183,0.659 L1.014,0.659 L1.014,0.824 L1.014,0.824 L0.845,0.989 L0.845,0.989 L0.676,0.989 L0.676,1.154 L0.676,1.154 L0.507,1.319 L0.507,1.319 L0.507,1.484 L0.507,1.484 L0.338,1.648 L0.338,1.648 L0.338,1.813 L0.338,1.813 L0.338,1.978 L0.169,1.978 L0.169,1.978 L0.169,2.143 L0.169,2.143 L0.169,2.308 L0.169,2.308 L0.169,2.473 L0.169,2.473 L0.169,2.637 L0.169,2.637 L0.169,2.802 L0.169,2.802 L0,2.967 L0,12.033 L0.169,12.033 L0.169,12.033 L0.169,12.198 L0.169,12.198 L0.169,12.363 L0.169,12.363 L0.169,12.527 L0.169,12.527 L0.169,12.692 L0.169,12.692 L0.169,12.857 L0.169,12.857 L0.338,13.022 L0.338,13.022 L0.338,13.022 L0.338,13.187 L0.338,13.187 L0.507,13.352 L0.507,13.352 L0.507,13.516 L0.507,13.516 L0.676,13.681 L0.676,13.681 L0.676,13.846 L0.845,13.846 L0.845,14.011 L1.014,14.011 L1.014,14.011 L1.014,14.176 L1.183,14.176 L1.352,14.341 L1.352,14.341 L1.521,14.505 L1.69,14.505 L1.859,14.67 L2.028,14.67 L2.196,14.835 L2.365,14.835 L3.041,15 L33.792,15 L34.468,15 L34.637,15 L34.806,14.835 L34.975,14.835 L35.144,14.67 L35.313,14.67 L35.482,14.505 L35.482,14.505 L35.651,14.341 L35.82,14.341 L35.82,14.176 L35.82,14.176 L35.989,14.011 L35.989,14.011 L36.157,14.011 L36.157,13.846 L36.157,13.846 L36.326,13.681 L36.326,13.681 L36.326,13.516 L36.326,13.516 L36.495,13.352 L36.495,13.352 L36.495,13.187 L36.495,13.187 L36.495,13.022 L36.664,13.022 L36.664,13.022 L36.664,12.857 L36.664,12.857 L36.664,12.692 L36.664,12.692 L36.664,12.527 L36.664,12.527 L36.664,12.363 L36.664,12.363 L36.664,12.198 L36.664,12.198 L36.833,12.033 L36.833,2.967 L36.664,2.967 L36.664,2.967 L36.664,2.802 L36.664,2.802 L36.664,2.637 L36.664,2.637 L36.664,2.473 L36.664,2.473 L36.664,2.308 L36.664,2.308 L36.664,2.143 L36.664,2.143 L36.495,1.978 L36.495,1.978 L36.495,1.978 L36.495,1.813 L36.495,1.813 L36.326,1.648 L36.326,1.648 L36.326,1.484 L36.326,1.484 L36.157,1.319 L36.157,1.319 L36.157,1.154 L35.989,1.154 L35.989,0.989 L35.82,0.989 L35.82,0.989 L35.82,0.824 L35.651,0.824 L35.482,0.659 L35.482,0.659 L35.313,0.495 L35.144,0.495 L34.975,0.33 L34.806,0.33 L34.637,0.165 L34.468,0.165 L33.792,0 L3.041,0 z" stroke-width="1" stroke-dasharray="none"/></g></g></g></g></g><g fill="#9999FF" stroke="#9999FF" stroke-opacity="1" opacity="0" transform="scale(1,1) translate(0,0)"><path fill="none" stroke-width="1" stroke-dasharray="none" d="M0,0"/></g><g width="19.35221290588379" height="11.458333015441895" transform="rotate(180,28.676,-6) scale(1,1) translate(28.676,-6)" opacity="0"><text width="19.35221290588379" height="11.458333015441895" transform="scale(1,1) translate(0,0)" xml:space="preserve"><tspan xml:space="preserve" text-rendering="optimizeSpeed" font-size="10" font-weight="normal" font-style="normal" text-decoration="none" fill="#000" opacity="1" x="0" text-anchor="start" y="9.375" textLength="19.35221290588379" style="font-family: Arial, Helvetica Neue, Helvetica, sans-serif;">1' 6"</tspan></text></g><g transform="scale(1,1) translate(0,0)" fill="black" opacity="0"><path d="M6.459,-14.594 L6.459,-8.865 L0.73,-11.729 L6.459,-14.594 z"/></g><g transform="scale(1,1) translate(0,0)" fill="black" opacity="0"><path d="M31.541,-14.594 L31.541,-8.865 L37.27,-11.729 L31.541,-14.594 z"/></g><g width="19.35221290588379" height="11.458333015441895" transform="rotate(270,44,34.676) scale(1,1) translate(44,34.676)" opacity="0"><text width="19.35221290588379" height="11.458333015441895" transform="scale(1,1) translate(0,0)" xml:space="preserve"><tspan xml:space="preserve" text-rendering="optimizeSpeed" font-size="10" font-weight="normal" font-style="normal" text-decoration="none" fill="#000" opacity="1" x="0" text-anchor="start" y="9.375" textLength="19.35221290588379" style="font-family: Arial, Helvetica Neue, Helvetica, sans-serif;">2' 0"</tspan></text></g><g transform="scale(1,1) translate(0,0)" fill="black" opacity="0"><path d="M52.594,12.459 L46.865,12.459 L49.729,6.73 L52.594,12.459 z"/></g><g transform="scale(1,1) translate(0,0)" fill="black" opacity="0"><path d="M52.594,37.541 L46.865,37.541 L49.729,43.27 L52.594,37.541 z"/></g></g><g width="55" height="47.783" transform="scale(1,1) translate(315.37,366.699)"><g transform="scale(1,1) translate(0,0)" stroke="#000000" fill="#BFBFBF" fill-opacity="1" stroke-opacity="1"><path d="M55,47.783 L55,47.783 L54.806,45.739 L54.542,43.776 L54.215,41.885 L53.83,40.062 L53.391,38.299 L52.904,36.594 L52.37,34.942 L51.793,33.34 L51.175,31.785 L50.518,30.275 L49.823,28.809 L49.093,27.383 L48.328,25.998 L47.53,24.651 L46.7,23.341 L45.838,22.067 L44.946,20.829 L44.024,19.625 L43.072,18.456 L42.09,17.32 L41.081,16.217 L40.043,15.147 L38.976,14.11 L37.882,13.105 L36.759,12.132 L35.609,11.191 L34.43,10.283 L33.224,9.408 L31.988,8.565 L30.725,7.755 L29.432,6.979 L28.109,6.237 L26.757,5.53 L25.374,4.858 L23.959,4.222 L22.512,3.624 L21.032,3.064 L19.517,2.543 L17.967,2.064 L16.379,1.629 L14.752,1.238 L13.084,0.894 L11.373,0.601 L9.616,0.361 L7.809,0.177 L5.949,0.055 L4.032,0 L2.051,0.018 L0,0.116 L0,0.116 L0,47.783 L55,47.783 z" stroke-width="1" stroke-dasharray="none"/></g></g><g width="75.694" height="26.389" transform="scale(1,1) translate(655.25,621.528)"><g stroke="#000000" stroke-opacity="1" stroke-width="0.3333333333333333" stroke-dasharray="none" width="75.694" height="26.389" transform="scale(1,1) translate(0,0)" fill="#D8D8D8" fill-opacity="1"><rect width="75.694" height="26.389"/></g><g fill="#9999FF" stroke="#9999FF" stroke-opacity="1" opacity="0" transform="scale(1,1) translate(0,0)"><path fill="none" stroke-width="1" stroke-dasharray="none" d="M0,0"/></g><g width="19.35221290588379" height="11.458333015441895" transform="scale(1,1) translate(28.171,-16.792)" opacity="0"><text width="19.35221290588379" height="11.458333015441895" transform="scale(1,1) translate(0,0)" xml:space="preserve"><tspan xml:space="preserve" text-rendering="optimizeSpeed" font-size="10" font-weight="normal" font-style="normal" text-decoration="none" fill="#000" opacity="1" x="0" text-anchor="start" y="9.375" textLength="19.35221290588379" style="font-family: Arial, Helvetica Neue, Helvetica, sans-serif;">3' 0"</tspan></text></g><g transform="scale(1,1) translate(0,0)" fill="black" opacity="0"><path d="M25.307,-13.927 L25.307,-8.198 L19.577,-11.062 L25.307,-13.927 z"/></g><g transform="scale(1,1) translate(0,0)" fill="black" opacity="0"><path d="M50.388,-13.927 L50.388,-8.198 L56.117,-11.062 L50.388,-13.927 z"/></g><g width="19.35221290588379" height="11.458333015441895" transform="rotate(270,81.028,22.871) scale(1,1) translate(81.028,22.871)" opacity="0"><text width="19.35221290588379" height="11.458333015441895" transform="scale(1,1) translate(0,0)" xml:space="preserve"><tspan xml:space="preserve" text-rendering="optimizeSpeed" font-size="10" font-weight="normal" font-style="normal" text-decoration="none" fill="#000" opacity="1" x="0" text-anchor="start" y="9.375" textLength="19.35221290588379" style="font-family: Arial, Helvetica Neue, Helvetica, sans-serif;">1' 1"</tspan></text></g><g transform="scale(1,1) translate(0,0)" fill="black" opacity="0"><path d="M89.622,0.654 L83.892,0.654 L86.757,-5.075 L89.622,0.654 z"/></g><g transform="scale(1,1) translate(0,0)" fill="black" opacity="0"><path d="M89.622,25.735 L83.892,25.735 L86.757,31.464 L89.622,25.735 z"/></g></g><g width="80.333" height="31.333" transform="scale(1,1) translate(132.167,230.167)"><g stroke="#000000" stroke-opacity="1" stroke-width="0" stroke-dasharray="none" width="80.333" height="31.333" transform="scale(1,1) translate(0,0)" fill="none"><rect width="80.333" height="31.333"/></g><g width="80.33333333333333" height="31.333333333333332" transform="scale(1,1) translate(0,0)"><text width="80.33333333333333" height="31.249998092651367" transform="scale(1,1) translate(0,0.04166762034098248)" xml:space="preserve"><tspan xml:space="preserve" text-rendering="optimizeSpeed" font-size="13.88888888888889" font-weight="normal" font-style="normal" text-decoration="none" fill="#000000" opacity="1" x="0.038" text-anchor="start" y="12.5" textLength="80.25715637207031" style="font-family: Arial, Helvetica Neue, Helvetica, sans-serif;">Dining Room</tspan><tspan xml:space="preserve" text-rendering="optimizeSpeed" font-size="13.88888888888889" font-weight="normal" font-style="normal" text-decoration="none" fill="#000000" opacity="1" x="20.497" text-anchor="start" y="28.125" textLength="39.33919143676758" style="font-family: Arial, Helvetica Neue, Helvetica, sans-serif;">(DNR)</tspan></text></g></g><g width="67.833" height="31.333" transform="scale(1,1) translate(641.667,201)"><g stroke="#000000" stroke-opacity="1" stroke-width="0" stroke-dasharray="none" width="67.833" height="31.333" transform="scale(1,1) translate(0,0)" fill="none"><rect width="67.833" height="31.333"/></g><g width="67.90364074707031" height="31.333333333333332" transform="scale(1,1) translate(0,0)"><text width="67.90364074707031" height="31.249998092651367" transform="scale(1,1) translate(0,0.04166762034098248)" xml:space="preserve"><tspan xml:space="preserve" text-rendering="optimizeSpeed" font-size="13.88888888888889" font-weight="normal" font-style="normal" text-decoration="none" fill="#000000" opacity="1" x="0" text-anchor="start" y="12.5" textLength="67.90364074707031" style="font-family: Arial, Helvetica Neue, Helvetica, sans-serif;">Mud Room</tspan><tspan xml:space="preserve" text-rendering="optimizeSpeed" font-size="13.88888888888889" font-weight="normal" font-style="normal" text-decoration="none" fill="#000000" opacity="1" x="13.517" text-anchor="start" y="28.125" textLength="40.869140625" style="font-family: Arial, Helvetica Neue, Helvetica, sans-serif;">(MUD)</tspan></text></g></g><g width="71.667" height="31.167" transform="scale(1,1) translate(658.5,502.167)"><g stroke="#000000" stroke-opacity="1" stroke-width="0" stroke-dasharray="none" width="71.667" height="31.167" transform="scale(1,1) translate(0,0)" fill="none"><rect width="71.667" height="31.167"/></g><g width="71.77734375" height="31.249998092651367" transform="scale(1,1) translate(0,0)"><text width="71.77734375" height="31.249998092651367" transform="scale(1,1) translate(0,0)" xml:space="preserve"><tspan xml:space="preserve" text-rendering="optimizeSpeed" font-size="13.88888888888889" font-weight="normal" font-style="normal" text-decoration="none" fill="#000000" opacity="1" x="0" text-anchor="start" y="12.5" textLength="71.77734375" style="font-family: Arial, Helvetica Neue, Helvetica, sans-serif;">Bathroom 1</tspan><tspan xml:space="preserve" text-rendering="optimizeSpeed" font-size="13.88888888888889" font-weight="normal" font-style="normal" text-decoration="none" fill="#000000" opacity="1" x="11.589" text-anchor="start" y="28.125" textLength="48.600257873535156" style="font-family: Arial, Helvetica Neue, Helvetica, sans-serif;">(BTH 1)</tspan></text></g></g><g width="39.167" height="31.167" transform="scale(1,1) translate(830.833,623)"><g stroke="#000000" stroke-opacity="1" stroke-width="0" stroke-dasharray="none" width="39.167" height="31.167" transform="scale(1,1) translate(0,0)" fill="none"><rect width="39.167" height="31.167"/></g><g width="39.166666666666664" height="31.249998092651367" transform="scale(1,1) translate(0,0)"><text width="39.166666666666664" height="31.249998092651367" transform="scale(1,1) translate(0,0)" xml:space="preserve"><tspan xml:space="preserve" text-rendering="optimizeSpeed" font-size="13.88888888888889" font-weight="normal" font-style="normal" text-decoration="none" fill="#000000" opacity="1" x="0.036" text-anchor="start" y="12.5" textLength="39.09505081176758" style="font-family: Arial, Helvetica Neue, Helvetica, sans-serif;">Pantry</tspan><tspan xml:space="preserve" text-rendering="optimizeSpeed" font-size="13.88888888888889" font-weight="normal" font-style="normal" text-decoration="none" fill="#000000" opacity="1" x="1.452" text-anchor="start" y="28.125" textLength="36.26301956176758" style="font-family: Arial, Helvetica Neue, Helvetica, sans-serif;">(PTY)</tspan></text></g></g><g width="46.167" height="31.167" transform="scale(1,1) translate(796.5,854.167)"><g stroke="#000000" stroke-opacity="1" stroke-width="0" stroke-dasharray="none" width="46.167" height="31.167" transform="scale(1,1) translate(0,0)" fill="none"><rect width="46.167" height="31.167"/></g><g width="46.32161331176758" height="31.249998092651367" transform="scale(1,1) translate(0,0)"><text width="46.32161331176758" height="31.249998092651367" transform="scale(1,1) translate(0,0)" xml:space="preserve"><tspan xml:space="preserve" text-rendering="optimizeSpeed" font-size="13.88888888888889" font-weight="normal" font-style="normal" text-decoration="none" fill="#000000" opacity="1" x="0" text-anchor="start" y="12.5" textLength="46.32161331176758" style="font-family: Arial, Helvetica Neue, Helvetica, sans-serif;">Kitchen</tspan><tspan xml:space="preserve" text-rendering="optimizeSpeed" font-size="13.88888888888889" font-weight="normal" font-style="normal" text-decoration="none" fill="#000000" opacity="1" x="4.647" text-anchor="start" y="28.125" textLength="37.027992248535156" style="font-family: Arial, Helvetica Neue, Helvetica, sans-serif;">(KTN)</tspan></text></g></g><g width="95" height="31.333" transform="scale(1,1) translate(506.833,926)"><g stroke="#000000" stroke-opacity="1" stroke-width="0" stroke-dasharray="none" width="95" height="31.333" transform="scale(1,1) translate(0,0)" fill="none"><rect width="95" height="31.333"/></g><g width="95" height="31.333333333333332" transform="scale(1,1) translate(0,0)"><text width="95" height="31.249998092651367" transform="scale(1,1) translate(0,0.04166762034098248)" xml:space="preserve"><tspan xml:space="preserve" text-rendering="optimizeSpeed" font-size="13.88888888888889" font-weight="normal" font-style="normal" text-decoration="none" fill="#000000" opacity="1" x="0.039" text-anchor="start" y="12.5" textLength="94.921875" style="font-family: Arial, Helvetica Neue, Helvetica, sans-serif;">Breakfast Nook</tspan><tspan xml:space="preserve" text-rendering="optimizeSpeed" font-size="13.88888888888889" font-weight="normal" font-style="normal" text-decoration="none" fill="#000000" opacity="1" x="27.83" text-anchor="start" y="28.125" textLength="39.33919143676758" style="font-family: Arial, Helvetica Neue, Helvetica, sans-serif;">(NOK)</tspan></text></g></g><g width="77.333" height="31.167" transform="scale(1,1) translate(158.833,623)"><g stroke="#000000" stroke-opacity="1" stroke-width="0" stroke-dasharray="none" width="77.333" height="31.167" transform="scale(1,1) translate(0,0)" fill="none"><rect width="77.333" height="31.167"/></g><g width="77.33333333333333" height="31.249998092651367" transform="scale(1,1) translate(0,0)"><text width="77.33333333333333" height="31.249998092651367" transform="scale(1,1) translate(0,0)" xml:space="preserve"><tspan xml:space="preserve" text-rendering="optimizeSpeed" font-size="13.88888888888889" font-weight="normal" font-style="normal" text-decoration="none" fill="#000000" opacity="1" x="0.076" text-anchor="start" y="12.5" textLength="77.18098449707031" style="font-family: Arial, Helvetica Neue, Helvetica, sans-serif;">Living Room</tspan><tspan xml:space="preserve" text-rendering="optimizeSpeed" font-size="13.88888888888889" font-weight="normal" font-style="normal" text-decoration="none" fill="#000000" opacity="1" x="21.048" text-anchor="start" y="28.125" textLength="35.23762893676758" style="font-family: Arial, Helvetica Neue, Helvetica, sans-serif;">(LVR)</tspan></text></g></g></g></svg>